<svg width="304" height="263" viewBox="0 0 304 263" fill="none" xmlns="http://www.w3.org/2000/svg">
<g clip-path="url(#clip0)">
<g opacity="0.5">
<path opacity="0.5" fill-rule="evenodd" clip-rule="evenodd" d="M29.3014 28.1221C28.6137 28.8084 28.8808 31.2476 28.8664 32.1503C28.8443 33.5556 28.9318 34.9483 29.0493 36.3485C29.128 37.286 29.5719 46.2328 30.8072 45.5457C31.5036 45.1586 31.067 42.5704 31.0658 41.7518C31.0629 39.9319 30.9872 38.1164 30.8658 36.3005C30.753 34.6146 30.6822 32.9484 30.7471 31.2594C30.7629 30.8471 31.1488 26.2719 29.3014 28.1221Z" fill="#89C5CC"/>
<path opacity="0.5" fill-rule="evenodd" clip-rule="evenodd" d="M59.2462 27.0197C53.3387 27.0667 47.4336 27.3581 41.5289 27.5365C38.6876 27.6224 35.8481 27.7316 33.0098 27.889C32.0426 27.9427 29.9683 27.6332 29.1626 28.1483C27.3738 29.2921 30.2586 29.5595 31.0276 29.5315C42.713 29.1079 54.4024 28.55 66.0978 28.5237C71.8348 28.5109 77.569 28.6742 83.3067 28.6375C85.4999 28.6236 87.9286 27.6789 88.4825 30.231C89.1077 33.1108 88.3894 36.3172 88.1939 39.211C88.0634 41.1428 88.1099 43.0345 88.197 44.9646C88.2528 46.2012 88.1075 47.5945 88.326 48.8079C88.5365 49.9764 89.3768 50.6771 90.1471 49.3682C90.6072 48.5861 90.3782 46.6549 90.4089 45.7488C90.4501 44.5285 90.4113 43.3086 90.4113 42.088C90.4109 39.1089 90.8317 36.1416 90.7761 33.1631C90.7403 31.2425 90.6382 27.7606 88.215 27.2991C85.5466 26.7908 82.2667 27.3019 79.536 27.2707C72.7697 27.1936 66.0148 26.9669 59.2462 27.0197Z" fill="#89C5CC"/>
<path opacity="0.5" fill-rule="evenodd" clip-rule="evenodd" d="M42.9693 45.6537C40.7417 45.6537 38.5139 45.6671 36.2866 45.7039C34.3763 45.7355 31.3728 45.3375 29.5948 46.0208C28.3776 46.4885 28.0543 47.847 29.5948 48.2088C31.275 48.6036 33.8072 47.9582 35.5651 47.9272C44.3799 47.7716 53.2795 47.5689 62.082 48.1261C70.3301 48.6482 78.7372 49.1544 86.9975 48.6034C87.6925 48.557 91.2371 48.416 89.6196 47.0877C88.6761 46.3125 84.8516 46.8224 83.6252 46.7853C79.2998 46.6548 74.9701 46.6259 70.6461 46.462C66.3786 46.3001 62.1299 45.8204 57.8609 45.7017C52.9012 45.5638 47.9306 45.6537 42.9693 45.6537Z" fill="#89C5CC"/>
<path opacity="0.5" fill-rule="evenodd" clip-rule="evenodd" d="M40.7402 32.9876C44.2122 33.1391 47.6472 38.1727 44.1342 40.6055C40.8386 42.8881 34.6622 40.3865 36.4947 35.9602C36.2313 36.6001 36.8278 35.265 36.8353 35.256C37.1838 34.8456 37.8096 34.3912 38.239 34.0677C38.7306 33.6974 39.2425 33.2898 39.8352 33.1043C40.2243 32.9825 40.1632 33.4408 40.7402 32.9876ZM39.0493 31.1721C37.4243 31.8064 36.6827 32.5219 35.566 33.8165C34.7933 34.7125 33.8083 35.1839 33.817 36.3947C33.8188 36.6627 34.1633 36.9573 34.2227 37.2154C34.3049 37.5721 34.2097 38.0291 34.2749 38.4081C34.9471 42.3191 39.615 43.6377 43.0317 42.8993C46.008 42.2561 48.2339 39.4 47.5445 36.2943C46.8503 33.1679 42.2127 29.9352 39.0493 31.1721Z" fill="#89C5CC"/>
<path opacity="0.5" fill-rule="evenodd" clip-rule="evenodd" d="M37.6025 36.6317C37.6025 38.0386 39.8256 38.0386 39.8256 36.6317C39.8256 35.2408 37.6025 35.181 37.6025 36.6317Z" fill="#89C5CC"/>
<path opacity="0.5" fill-rule="evenodd" clip-rule="evenodd" d="M40.3833 36.3467C40.3833 37.4647 42.1497 37.4647 42.1497 36.3467C42.1497 35.2414 40.3833 35.1942 40.3833 36.3467Z" fill="#89C5CC"/>
<path opacity="0.5" fill-rule="evenodd" clip-rule="evenodd" d="M40.9306 38.6522C40.365 38.8696 39.6475 38.4188 39.1831 38.7158C38.3607 39.2421 39.1851 39.7184 39.626 39.9299C41.6108 40.882 41.9639 38.2566 40.9306 38.6522Z" fill="#89C5CC"/>
<path opacity="0.5" fill-rule="evenodd" clip-rule="evenodd" d="M71.2428 35.5341C71.1837 35.5593 70.973 35.6484 71.2428 35.5341V35.5341ZM62.5992 34.2713C61.1137 34.6065 59.8594 35.9934 58.2454 35.8078C57.0085 35.6656 56.1711 34.4724 54.95 34.299C53.388 34.077 49.1369 37.6391 51.3719 38.2503C52.676 38.607 53.3994 36.2247 54.5514 36.0981C55.4627 35.998 56.7021 37.1152 57.6465 37.2743C59.4082 37.571 60.6181 36.6009 62.1647 35.9753C63.8453 35.2955 64.8014 35.9077 66.263 36.6633C67.4167 37.2597 68.5031 37.648 69.8232 37.4019C71.0621 37.1712 72.6185 35.8976 73.8655 36.0282C75.087 36.1562 75.9587 37.4305 77.2151 37.5488C77.733 37.5974 78.5041 37.7738 78.417 36.9749C78.3474 36.3351 77.6334 36.4435 77.1867 36.2109C76.0379 35.6129 74.9634 34.5537 73.5769 34.644C72.5341 34.7121 71.5846 35.4446 70.6235 35.7951C67.4759 36.9426 65.7065 33.5746 62.5992 34.2713Z" fill="#89C5CC"/>
<path opacity="0.5" fill-rule="evenodd" clip-rule="evenodd" d="M65.2286 54.5365C59.1571 54.5922 53.065 54.6823 47.0106 55.1689C45.5752 55.2842 30.9186 56.6676 30.9463 56.7672C30.9977 56.9516 32.8829 57.2332 32.8711 57.2767C32.744 56.9617 32.4536 56.8313 32 56.8858C45.9005 56.8858 59.757 55.6415 73.6759 55.8654C77.1732 55.9215 80.6837 55.898 84.1786 56.0082C85.0511 56.0357 87.2129 56.6609 87.8981 56.2671C89.6964 55.2333 86.4295 55.114 85.8884 55.0707C79.0387 54.5229 72.0976 54.468 65.2286 54.5365Z" fill="#69A1AC"/>
<path opacity="0.5" fill-rule="evenodd" clip-rule="evenodd" d="M29.147 57.4848C28.2393 58.3946 29.0751 61.6674 29.1108 62.8975C29.1626 64.6759 29.12 66.4669 29.276 68.2406C29.4543 70.2668 29.7307 72.4255 30.2625 74.3913C30.5553 75.4743 31.5834 77.1954 31.9907 75.2275C32.2816 73.822 31.8399 71.9575 31.6863 70.5257C31.4807 68.6103 31.4309 66.7201 31.4232 64.7954C31.4163 63.1183 31.384 61.4343 31.2464 59.7624C31.175 58.8943 30.7382 55.9025 29.147 57.4848Z" fill="#69A1AC"/>
<path opacity="0.5" fill-rule="evenodd" clip-rule="evenodd" d="M51.9836 74.1525C47.675 74.2264 43.3571 74.3279 39.0558 74.597C37.2929 74.7074 35.5313 74.8716 33.7749 75.058C33.4164 75.0959 29.4492 75.257 31.2219 76.7206C32.022 77.3814 35.3133 76.4677 36.4004 76.3725C38.2288 76.2123 40.0567 76.1082 41.8903 76.0306C46.1388 75.8503 50.4002 75.6911 54.653 75.7648C62.4197 75.8995 70.1365 75.9597 77.9054 75.7865C79.0092 75.762 87.6566 75.9929 87.9503 74.8449C88.1869 73.9197 85.0945 74.3441 84.5307 74.361C82.4622 74.4227 80.3936 74.4084 78.3244 74.3978C69.5589 74.3529 60.7424 74.0044 51.9836 74.1525Z" fill="#69A1AC"/>
<path opacity="0.5" fill-rule="evenodd" clip-rule="evenodd" d="M86.4865 55.9497C86.6233 59.7847 87.2766 63.6152 87.4855 67.4617C87.5809 69.2201 87.6933 70.9768 87.7794 72.7358C87.8072 73.3032 87.5784 74.6704 88.2496 74.9968C89.1703 75.4445 89.2943 74.5424 89.4666 73.9322C89.9645 72.1698 89.6278 69.8805 89.5825 68.0703C89.5389 66.3172 89.5358 64.561 89.4065 62.8112C89.274 61.0234 88.9139 59.2695 88.7469 57.4881C88.6763 56.7347 88.9233 55.4809 88.1232 55.0134C87.4317 54.6092 86.4567 55.1185 86.4865 55.9497Z" fill="#69A1AC"/>
<path opacity="0.5" fill-rule="evenodd" clip-rule="evenodd" d="M44.137 62.3287C44.1534 62.3413 44.1696 62.354 44.1859 62.3668C44.1696 62.354 44.1532 62.3415 44.137 62.3287ZM40.4754 61.1924C41.8408 61.5824 42.9622 61.437 44.2665 62.4306C45.3477 63.2545 46.4567 64.4598 46.8153 65.792C47.6438 68.8697 44.835 70.5564 42.2017 70.5896C39.5045 70.6234 35.5121 69.9981 35.6503 66.5419C35.7563 63.8865 37.6958 61.2956 40.4754 61.1924ZM40.5717 59.4531C37.0311 59.6294 34.1752 63.6041 34.2058 66.9499C34.2428 71.0049 38.8389 72.0495 42.1038 72.0777C45.7887 72.1093 49.4632 69.5658 48.4758 65.4233C47.6846 62.1042 43.9764 59.2763 40.5717 59.4531Z" fill="#69A1AC"/>
<path opacity="0.5" fill-rule="evenodd" clip-rule="evenodd" d="M37.0103 64.8977C37.0103 66.0285 38.7974 66.0285 38.7974 64.8977C38.7974 63.7799 37.0103 63.7319 37.0103 64.8977Z" fill="#69A1AC"/>
<path opacity="0.5" fill-rule="evenodd" clip-rule="evenodd" d="M40.7588 64.4011C40.7588 65.5408 42.5601 65.5408 42.5601 64.4011C42.5601 63.2744 40.7588 63.2259 40.7588 64.4011Z" fill="#69A1AC"/>
<path opacity="0.5" fill-rule="evenodd" clip-rule="evenodd" d="M38.6919 66.9802C37.5287 68.1411 41.615 70.1764 42.5787 68.5613C43.3702 67.2348 41.6469 67.6746 41.0359 67.6029C40.372 67.5247 39.2338 66.4399 38.6919 66.9802Z" fill="#69A1AC"/>
<path opacity="0.5" fill-rule="evenodd" clip-rule="evenodd" d="M71.3632 64.4248C71.2512 64.4718 71.2512 64.4718 71.3632 64.4248V64.4248ZM56.0179 62.5348C54.8401 62.7556 50.9748 64.0592 50.9227 65.4562C50.8273 67.9953 54.6128 65.3946 55.4348 65.0605C57.6679 64.1534 58.8412 66.0039 61.0844 66.1016C63.0327 66.1865 64.8241 64.5196 66.6593 64.7167C68.5822 64.9232 69.5071 66.9682 71.7269 65.8824C72.9013 65.3081 72.8717 64.4226 71.5534 64.3391C70.7566 64.2887 70.2092 64.6179 69.3784 64.2751C68.0792 63.7395 67.556 62.8672 66.0013 63.0058C64.8281 63.1103 63.7678 63.7713 62.6227 64.0272C60.0006 64.6128 58.5461 62.0614 56.0179 62.5348Z" fill="#69A1AC"/>
<path opacity="0.5" fill-rule="evenodd" clip-rule="evenodd" d="M80.4093 65.5272C80.3283 65.5612 80.3283 65.5612 80.4093 65.5272V65.5272ZM80.7064 64.47C80.7194 64.4756 80.8083 64.5988 80.7064 64.47V64.47ZM79.3563 63.6629C79.3056 63.702 79.3056 63.702 79.3563 63.6629V63.6629ZM79.3857 63.653C79.6476 63.8096 81.7525 65.2485 80.2236 65.5874C79.4474 65.7594 78.8053 64.1981 79.3857 63.653ZM78.6887 62.0589C75.3169 63.5958 78.9453 69.0958 81.5916 66.8612C82.705 65.9208 82.8516 64.0202 81.7684 63.0406C81.1193 62.4535 79.5698 61.6566 78.6887 62.0589Z" fill="#69A1AC"/>
<path opacity="0.5" fill-rule="evenodd" clip-rule="evenodd" d="M47.0361 83.7322C42.8286 83.7334 38.5842 83.6451 34.3824 83.8945C33.6752 83.9364 30.9815 83.8019 30.6171 84.5409C29.9506 85.8925 32.7223 85.2216 33.125 85.1811C41.4913 84.3438 50.2306 84.8255 58.6245 85.0642C65.4894 85.2593 72.3176 85.3804 79.1744 85.7341C80.9768 85.8271 82.7775 85.9298 84.5786 86.0384C85.1656 86.0738 86.643 86.4628 86.7668 85.5255C86.8813 84.658 85.0383 84.8539 84.578 84.8296C80.9169 84.6369 77.2582 84.4352 73.5981 84.2292C64.7884 83.7326 55.8599 83.7306 47.0361 83.7322Z" fill="#89C5CC"/>
<path opacity="0.5" fill-rule="evenodd" clip-rule="evenodd" d="M30.482 85.2362C29.6961 86.0171 30.0645 88.9993 30.0426 89.985C30.0042 91.7089 29.9228 93.4314 29.8863 95.155C29.8483 96.9563 29.9011 98.7659 30.0077 100.565C30.0523 101.32 30.6724 104.97 31.6486 102.881C32.0848 101.948 31.6381 99.3477 31.6448 98.2901C31.6568 96.3652 31.7605 94.4484 31.8563 92.5261C31.9387 90.8737 31.9417 89.2197 32.014 87.5669C32.0369 87.0399 32.0992 83.6146 30.482 85.2362Z" fill="#89C5CC"/>
<path opacity="0.5" fill-rule="evenodd" clip-rule="evenodd" d="M87.475 100.635C83.3804 101.054 79.2199 100.856 75.1097 101.166C71.5673 101.433 68.0282 101.542 64.4767 101.617C56.4345 101.787 48.3788 101.953 40.36 102.622C38.5325 102.775 36.7072 102.937 34.8748 103.019C33.9584 103.06 30.113 102.643 29.8267 103.609C29.3389 105.253 33.4512 104.602 34.3382 104.577C36.2887 104.52 38.2301 104.379 40.1751 104.231C48.3514 103.609 56.559 103.422 64.7527 103.164C69.209 103.023 73.6343 102.697 78.0807 102.4C80.2969 102.253 82.5192 102.248 84.7352 102.105C85.315 102.067 87.3674 102.141 87.7845 101.675C88.0711 101.354 88.1436 100.572 87.475 100.635Z" fill="#89C5CC"/>
<path opacity="0.5" fill-rule="evenodd" clip-rule="evenodd" d="M86.087 85.5148C86.2275 89.4403 86.4493 93.3624 86.5818 97.2879C86.6218 98.4684 86.265 100.584 86.9226 101.625C87.9798 103.299 88.8051 101.527 88.9987 100.484C89.6099 97.1923 88.9529 93.5557 88.7822 90.2433C88.7172 88.9796 89.1098 86.1671 88.4988 85.0361C87.9169 83.9588 86.0348 84.0669 86.087 85.5148Z" fill="#89C5CC"/>
<path opacity="0.5" fill-rule="evenodd" clip-rule="evenodd" d="M79.212 91.1052C80.7807 91.53 81.0099 94.9396 79.2398 95.1918C76.6051 95.5672 77.7573 91.8082 79.212 91.1052ZM78.7726 89.7494C78.294 89.7344 77.1895 89.6025 76.8945 89.9919C76.6477 90.3178 76.8972 91.0051 76.8684 91.3155C76.7646 92.4248 75.8625 93.0653 76.2658 94.375C76.5396 95.2639 77.2727 96.0991 78.1661 96.4078C82.881 98.037 82.8236 88.9299 78.7726 89.7494Z" fill="#89C5CC"/>
<path opacity="0.5" fill-rule="evenodd" clip-rule="evenodd" d="M36.2054 90.3621C36.1937 90.3771 36.1819 90.3921 36.1703 90.4071C36.1819 90.3921 36.1937 90.3771 36.2054 90.3621ZM39.9086 88.3924C39.8901 88.2348 39.8716 88.077 39.8532 87.9192C42.4095 89.1256 44.4437 91.3695 43.5949 94.3814C42.9472 96.6793 40.6072 97.4942 38.4271 96.927C36.0138 96.2988 34.8606 94.3103 35.5113 91.8685C35.8115 90.7419 36.7334 89.2281 37.925 88.8659C38.4797 88.6973 39.7064 89.127 39.9086 88.3924ZM38.4137 87.4385C37.7671 87.4821 37.1377 87.7515 36.6099 88.1198C37.104 87.7021 37.7624 87.4533 38.4137 87.4385ZM38.4322 85.9544C36.8348 86.0032 35.7881 86.9699 34.8407 88.1309C34.5433 88.4954 33.538 89.4614 33.6625 89.9525C33.7609 90.3406 34.0185 90.9083 34.5608 90.4755C31.7203 96.1349 39.0583 100.962 43.538 97.0265C47.7187 93.3538 43.5709 85.7822 38.4322 85.9544Z" fill="#89C5CC"/>
<path opacity="0.5" fill-rule="evenodd" clip-rule="evenodd" d="M36.981 91.2124C36.981 91.9659 38.1512 91.9659 38.1512 91.2124C38.1512 90.4588 36.981 90.4588 36.981 91.2124Z" fill="#89C5CC"/>
<path opacity="0.5" fill-rule="evenodd" clip-rule="evenodd" d="M38.9785 91.3411C38.9785 92.107 40.1677 92.107 40.1677 91.3411C40.1677 90.5751 38.9785 90.5751 38.9785 91.3411Z" fill="#89C5CC"/>
<path opacity="0.5" fill-rule="evenodd" clip-rule="evenodd" d="M39.8846 94.03C39.3283 94.0751 37.292 93.8861 36.9345 94.3733C36.3372 95.1873 37.2905 95.2156 37.7588 95.3036C38.1805 95.3828 40.0139 95.338 40.2723 94.9636C40.5006 94.6328 40.4473 93.9822 39.8846 94.03Z" fill="#89C5CC"/>
<path opacity="0.5" fill-rule="evenodd" clip-rule="evenodd" d="M64.4196 91.9183C64.324 91.9578 64.324 91.9578 64.4196 91.9183V91.9183ZM56.7251 91.3558C55.4716 91.4479 54.4099 92.1687 53.2114 92.4564C51.9321 92.7635 51.3784 92.1987 50.2152 91.829C49.0051 91.4445 48.1443 91.5964 47.1717 92.4225C46.6207 92.8907 45.4116 93.9682 45.756 94.7998C46.5448 96.7032 48.33 93.6064 49.1697 93.4624C50.4797 93.2377 51.6451 94.3827 53.1556 94.0551C54.5244 93.7585 55.7389 92.819 57.1686 92.8089C58.3641 92.8003 59.4908 93.4543 60.671 93.6125C62.4727 93.8542 63.6558 93.2146 65.3214 92.7398C66.7657 92.3281 67.7785 92.8711 69.1369 93.3277C69.7578 93.5363 71.8295 94.295 71.4481 92.9193C71.3403 92.5307 68.6102 91.8359 68.1871 91.7022C66.6944 91.2308 65.7492 91.4145 64.3274 91.9564C63.1417 92.4086 62.1443 92.6288 60.873 92.38C59.4723 92.1059 58.1985 91.244 56.7251 91.3558Z" fill="#89C5CC"/>
</g>
<g opacity="0.5">
<path opacity="0.5" fill-rule="evenodd" clip-rule="evenodd" d="M111.882 28.2712C112.085 23.92 112.363 19.5749 112.51 15.2211C112.582 13.0637 112.639 10.906 112.694 8.74817C112.706 8.26768 112.719 7.78739 112.73 7.3069C112.765 5.67453 112.572 5.54098 114.215 5.39608C121.546 4.74921 128.905 4.53481 136.245 3.94954C145.097 3.2437 153.995 2.75632 162.872 2.53786C166.816 2.44059 170.778 2.23915 174.723 2.36175C175.597 2.38891 177.313 2.16153 177.657 2.84083C177.806 3.13427 177.494 4.14409 177.455 4.48272C177.331 5.54057 177.215 6.60207 177.144 7.66519C176.724 13.9353 176.975 20.3635 178.189 26.5385C175.34 24.9325 171.741 23.551 168.42 23.8252C165.034 24.1046 162.502 26.06 159.792 27.8598C158.259 28.8777 157.743 29.1454 156.214 28.1593C154.896 27.3094 153.649 26.3377 152.406 25.384C150.487 23.9121 148.677 22.3162 146.816 20.7732C143.395 17.9361 138.682 13.8978 133.957 15.0868C130.581 15.9363 127.464 17.791 124.534 19.6061C120.181 22.3028 116.241 25.6053 111.882 28.2712ZM170.551 0.429453C153.732 0.429453 137.039 2.05939 120.268 2.94114C118.516 3.03314 116.771 3.16872 115.025 3.33712C113.862 3.44939 111.017 2.97802 110.255 3.97163C109.746 4.63451 110.183 4.73401 110.255 5.36386C110.345 6.15765 110.292 7.09817 110.268 7.93837C110.212 9.96288 110.154 11.9872 110.108 14.0119C109.934 21.6641 109.826 29.3149 110.135 36.965C110.203 38.6335 110.811 40.9435 110.478 42.5647C110.238 43.7385 109.432 44.4529 111.289 44.6697C113.117 44.8833 115.351 44.3402 117.18 44.1663C119.02 43.9912 120.859 43.8013 122.701 43.6495C130.708 42.9899 138.793 43.0896 146.822 42.8703C154.923 42.6493 163.027 42.6351 171.13 42.6306C174.521 42.6288 178.395 42.8193 181.704 41.8865C182.868 41.5582 183.056 41.3964 182.769 40.2419C182.714 40.0229 182.363 39.942 182.26 39.546C182.12 39.0072 182.192 38.3522 182.159 37.7912C182.052 35.9593 182.014 34.124 181.928 32.2908C181.784 29.2279 181.256 26.2554 180.865 23.2233C180.414 19.7217 180.437 16.1663 180.428 12.6418C180.423 10.6868 180.473 8.73824 180.63 6.78872C180.731 5.53835 181.347 3.6715 181.035 2.50543C180.879 1.92483 180.624 1.4644 180.02 1.21453C179.637 1.05606 179.315 1.18008 178.936 1.13996C178.487 1.09233 178.207 1.02931 177.669 0.907512C175.364 0.385274 172.9 0.429453 170.551 0.429453Z" fill="#69A1AC"/>
<path opacity="0.5" fill-rule="evenodd" clip-rule="evenodd" d="M161.243 8.75361C161.242 9.97216 161.052 11.7703 161.614 12.9177C162.327 14.3732 163.218 13.9182 163.455 12.5505C163.59 11.7669 163.587 9.44769 163.335 8.75361C162.978 7.77114 161.243 7.10198 161.243 8.75361Z" fill="#89C5CC"/>
<path opacity="0.5" fill-rule="evenodd" clip-rule="evenodd" d="M163.288 9.22464C162.144 9.26497 158.811 8.99037 158.037 9.91022C156.709 11.4879 159.021 11.7673 160.013 11.679C161.162 11.5768 164.712 11.8261 165.482 10.9052C166.768 9.36467 164.188 9.19181 163.288 9.22464Z" fill="#89C5CC"/>
<path opacity="0.5" fill-rule="evenodd" clip-rule="evenodd" d="M118.881 49.9333C123.912 50.807 122.347 58.475 117.586 56.6989C115.928 56.08 113.483 54.2918 114.4 52.1848C115.085 50.6106 117.317 49.7834 118.881 49.9333ZM116.798 47.5491C113.526 48.0997 111.289 51.6393 112.411 54.7267C113.493 57.7053 117.598 59.8865 120.625 58.816C123.515 57.7941 124.957 53.9503 123.982 51.1385C122.964 48.2006 119.648 47.0694 116.798 47.5491Z" fill="#89C5CC"/>
<path opacity="0.5" fill-rule="evenodd" clip-rule="evenodd" d="M147.398 50.8295C146.146 50.9335 145.063 51.8102 143.803 51.9654C142.625 52.1105 141.648 51.7074 140.544 51.3852C139.211 50.9959 137.987 50.8247 136.624 51.1706C135.583 51.4351 134.556 52.1436 133.474 52.2291C131.345 52.3971 128.87 49.9689 127.208 52.7152C126.412 54.0319 127.569 54.88 128.76 54.266C130.003 53.626 129.393 53.3968 130.934 53.7749C132.22 54.09 133.259 54.2613 134.547 53.8195C135.714 53.4195 136.739 52.6873 138.007 52.605C139.248 52.5245 140.329 53.09 141.516 53.3339C142.975 53.6339 144.267 53.4069 145.65 52.9495C146.965 52.5144 147.49 52.2765 148.818 52.6646C149.658 52.9104 151.495 53.6912 152.313 53.062C153.727 51.9741 151.834 51.8151 151.088 51.6604C149.887 51.4118 148.644 50.7276 147.398 50.8295Z" fill="#89C5CC"/>
<path opacity="0.5" fill-rule="evenodd" clip-rule="evenodd" d="M176.061 50.0996C176.071 50.1073 176.081 50.115 176.091 50.1227C176.081 50.115 176.071 50.1073 176.061 50.0996ZM174.831 49.8425C176.66 49.9602 178.637 53.2902 176.214 53.4083C174.509 53.4916 172.601 50.5757 174.831 49.8425ZM174.575 47.1176C168.793 48.7317 171.436 56.881 177.013 55.9397C179.546 55.5121 180.405 52.5781 179.567 50.4062C179.208 49.4734 178.507 48.6869 177.668 48.1501C177.05 47.7541 175.281 46.9208 174.575 47.1176Z" fill="#89C5CC"/>
<path opacity="0.5" fill-rule="evenodd" clip-rule="evenodd" d="M112.139 67.5657C115.067 65.8576 113.909 71.8843 113.861 72.9273C113.716 76.0676 113.912 79.0695 114.229 82.19C114.518 85.05 114.185 87.8971 114.074 90.7574C114.015 92.2759 113.983 93.7921 113.868 95.308C113.833 95.7808 113.888 97.9118 113.639 99.0462C114.278 99.018 114.885 99.0465 115.224 99.0363C117.596 98.9645 119.968 98.9017 122.34 98.8125C131.464 98.4697 140.592 98.6247 149.714 98.1916C158.342 97.7816 167.002 97.6947 175.636 97.5887C176.391 97.6546 176.729 98.4472 176.244 99.0563C175.77 99.6523 173.571 99.5216 172.885 99.577C170.454 99.7723 168.026 99.8603 165.587 99.8836C160.45 99.9324 155.333 100.152 150.205 100.445C141.093 100.964 131.968 100.921 122.852 101.292C120.639 101.382 118.426 101.449 116.212 101.507C115.044 101.538 111.987 102.241 111.409 100.846C111 99.8608 111.568 99.4072 112.399 99.2008C112.228 98.4428 112.32 97.2834 112.311 97.0153C112.266 95.7591 112.25 94.5022 112.202 93.2464C112.087 90.2536 112.01 87.2436 111.78 84.2575C111.559 81.4031 111.002 78.6353 110.986 75.7596C110.976 73.8147 110.435 68.8868 112.139 67.5657ZM175.683 66.9067C175.685 65.6298 177.216 65.373 177.896 66.2414C178.545 67.0721 178.127 69.587 178.143 70.5808C178.195 73.8557 178.505 77.1117 178.799 80.3716C179.091 83.6047 179.298 86.8393 179.523 90.0775C179.628 91.5741 180.778 97.5473 179.106 98.4193C176.972 99.5321 177.375 93.8704 177.315 92.8382C177.123 89.5159 176.882 86.1892 176.581 82.8752C176.095 77.5176 175.679 72.2859 175.683 66.9067ZM162.869 63.733C165.629 63.7075 168.374 63.7557 171.131 63.9138C172.353 63.9839 173.575 64.0516 174.798 64.1033C175.505 64.1333 177.119 63.9016 177.739 64.2293C180.172 65.5162 175.215 65.6572 174.612 65.6471C172.084 65.6045 169.56 65.4077 167.031 65.3457C157.731 65.1173 148.361 65.6832 139.068 66.0641C134.599 66.2475 130.131 66.2737 125.663 66.5246C123.22 66.6618 120.779 66.8186 118.337 66.9473C117.211 67.0067 116.084 67.0642 114.956 67.0926C114.262 67.1102 112.847 67.3978 112.205 67.1354C111.659 66.9118 111.217 66.5993 111.517 65.9371C111.841 65.2243 113.249 65.5277 113.846 65.5162C115.998 65.4744 118.146 65.3536 120.294 65.2221C125.173 64.9236 130.041 64.5744 134.93 64.4911C144.245 64.3323 153.549 63.8193 162.869 63.733Z" fill="#69A1AC"/>
<path opacity="0.5" fill-rule="evenodd" clip-rule="evenodd" d="M167.663 72.0635C168.152 71.9107 168.461 72.4143 168.35 72.8368C168.201 73.4024 166.461 73.8602 165.978 74.0758C164.068 74.9288 162.147 75.7607 160.236 76.6143C156.074 78.4736 151.904 80.3155 147.742 82.1761C147.66 82.2126 147.578 82.2491 147.497 82.2856C150.423 83.3252 153.333 84.4112 156.23 85.5302C157.78 86.1288 159.322 86.7469 160.869 87.3541C161.643 87.658 164.865 88.4214 165.05 89.1948C165.312 90.2866 161.878 88.9455 161.331 88.7708C159.788 88.2777 158.264 87.7257 156.74 87.1767C153.33 85.9487 149.935 84.6817 146.511 83.4909C146.191 83.3794 145.871 83.2684 145.55 83.1577C141.916 84.7897 138.29 86.4369 134.675 88.1102C132.737 89.0075 130.81 89.9258 128.887 90.8563C127.462 91.5464 124.882 93.5149 123.312 93.4807C122.718 93.4675 122.318 93.3403 122.256 92.6204C122.177 91.7 123.66 91.3218 124.259 91.0223C126.314 89.9951 128.382 88.9937 130.455 88.005C134.573 86.0415 138.729 84.1564 142.901 82.3088C142.924 82.2982 142.948 82.2877 142.972 82.2771C140.659 81.4943 138.339 80.7302 136.014 79.9823C134.686 79.5549 125.37 77.2567 125.709 76.0229C126.091 74.64 134.342 77.9007 135.611 78.305C139.121 79.4232 142.62 80.5769 146.097 81.7922L144.949 81.3946C152.387 78.0539 159.905 74.4943 167.663 72.0635Z" fill="#89C5CC"/>
<path opacity="0.5" fill-rule="evenodd" clip-rule="evenodd" d="M119.984 105.677C121.887 106.01 123.229 107.834 123.02 109.745C122.738 112.326 120.164 113.509 117.787 113.173C115.089 112.79 114.521 110.51 115.828 108.317C116.118 107.832 116.451 107.251 116.977 106.995C117.338 106.819 117.799 106.975 118.09 106.833C119.111 106.336 118.497 105.545 119.984 105.677ZM119.118 103.99C116.797 104.287 112.508 106.972 112.725 109.659C112.913 109.97 113.196 110.098 113.575 110.041C113.484 110.623 113.513 111.199 113.664 111.769C113.884 112.508 114.324 113.114 114.913 113.596C116.127 114.588 117.787 114.831 119.298 114.657C122.121 114.333 124.346 112.404 124.504 109.469C124.659 106.605 122.158 103.606 119.118 103.99Z" fill="#89C5CC"/>
<path opacity="0.5" fill-rule="evenodd" clip-rule="evenodd" d="M130.361 107.487C129.32 108.039 127.672 108.887 127.061 109.935C126.416 111.042 127.084 112.253 128.444 111.729C129.523 111.314 130.21 109.993 131.361 109.569C132.377 109.196 132.786 109.386 133.86 109.758C134.966 110.142 135.934 110.512 137.13 110.418C138.633 110.3 139.935 109.428 141.406 109.23C142.645 109.063 143.667 109.545 144.853 109.737C146.23 109.959 147.13 109.438 148.418 109.167C149.294 108.983 150.838 109.733 151.477 109.453C152.914 108.821 151.394 108.049 150.599 107.794C149.259 107.364 148.434 107.743 147.16 108.1C145.776 108.487 145.179 108.196 143.856 107.84C141.18 107.122 139.113 108.86 136.576 108.544C134.228 108.251 132.823 106.185 130.361 107.487Z" fill="#89C5CC"/>
<path opacity="0.5" fill-rule="evenodd" clip-rule="evenodd" d="M174.117 106.201C176.692 108.615 173.799 112.05 170.959 110.12C169.959 109.441 169.943 108.351 170.721 107.375C171.433 106.482 172.996 106.134 174.117 106.201ZM173.162 104.25C170.756 104.718 168.486 105.822 168.268 108.599C168.055 111.307 170.835 112.566 173.17 112.388C178.412 111.989 178.033 103.309 173.162 104.25Z" fill="#89C5CC"/>
</g>
<path opacity="0.5" fill-rule="evenodd" clip-rule="evenodd" d="M265.643 14.2841C262.914 14.3213 256.175 15.0212 255.173 17.2974C254.412 19.0252 256.671 18.6459 257.882 18.0172C259.52 17.167 260.957 16.6582 262.986 16.3995C270.718 15.4135 278.147 18.9493 285.804 19.3964C288.705 19.5658 292.206 19.6762 294.975 19.0139C296.948 18.5423 297.205 17.5139 294.954 17.3572C293.042 17.2242 290.926 17.6436 288.965 17.6316C280.852 17.5827 273.64 14.1765 265.643 14.2841Z" fill="#C1DEE2"/>
<g opacity="0.5">
<path opacity="0.5" fill-rule="evenodd" clip-rule="evenodd" d="M23.8813 122.384C20.1986 122.425 16.5177 122.561 12.8422 122.794C9.34698 123.015 5.5546 122.847 2.11631 123.524C1.13999 123.717 -0.178856 124.606 1.11932 125.585C2.03179 126.273 5.37016 125.481 6.45978 125.414C10.4725 125.168 14.4872 124.872 18.5056 124.731C22.3097 124.596 26.1136 124.549 29.9196 124.511C30.5007 124.505 31.4652 124.319 32.0439 124.487C32.8753 124.73 32.6781 124.796 32.7403 125.851C32.8532 127.762 32.822 129.681 32.7841 131.594C32.7474 133.446 32.6789 135.297 32.6856 137.149C32.6902 138.471 32.2676 141.097 32.931 142.245C33.8859 143.897 34.8764 142.103 34.9477 141.005C35.0843 138.905 35.0231 136.78 35.0237 134.677C35.0241 132.704 35.0383 130.731 34.9688 128.758C34.9183 127.333 35.122 124.846 34.3543 123.551C33.5723 122.232 31.6896 122.516 30.3158 122.453C28.1729 122.355 26.0261 122.362 23.8813 122.384Z" fill="#89C5CC"/>
<path opacity="0.5" fill-rule="evenodd" clip-rule="evenodd" d="M0.449927 124.766C0.453981 128.474 0.0249033 132.157 -0.095287 135.86C-0.150398 137.563 -0.262297 139.433 0.168605 141.104C0.60356 142.792 1.98504 143.158 2.14414 141.273C2.46641 137.458 2.38736 133.502 2.63828 129.656C2.72685 128.298 3.30328 125.809 2.76516 124.538C2.29129 123.418 0.4479 123.203 0.449927 124.766Z" fill="#89C5CC"/>
<path opacity="0.5" fill-rule="evenodd" clip-rule="evenodd" d="M34.9838 141.109C28.5882 141.955 21.9021 141.647 15.4609 141.78C12.3706 141.844 9.28094 141.848 6.19025 141.88C5.11158 141.891 2.37234 141.481 1.43919 142.087C-0.0462612 143.052 1.56546 143.797 2.54887 143.818C8.64817 143.952 14.8154 143.671 20.9134 143.471C23.6533 143.381 26.4021 143.337 29.1346 143.105C30.8169 142.961 32.6552 142.822 34.2888 142.371C34.6368 142.274 35.3946 142.294 35.4727 141.819C35.5207 141.526 35.4336 141.047 34.9838 141.109Z" fill="#89C5CC"/>
<path opacity="0.5" fill-rule="evenodd" clip-rule="evenodd" d="M8.38893 146.498C6.61142 146.508 1.25495 145.683 0.518806 147.415C-0.462578 149.726 3.36588 149.187 4.3955 149.16C6.73404 149.1 9.07096 149.094 11.4101 149.095C13.7053 149.096 16.0002 149.081 18.295 149.027C18.9598 149.011 20.5073 149.287 20.8897 148.486C21.1804 147.878 20.9507 147.398 20.4146 147.076C19.1248 146.301 15.7738 146.751 14.2637 146.681C12.3084 146.591 10.3466 146.498 8.38893 146.498Z" fill="#89C5CC"/>
<path opacity="0.5" fill-rule="evenodd" clip-rule="evenodd" d="M30.014 146.927C28.9982 146.987 26.9434 146.569 26.0334 147.033C24.9991 147.561 25.3635 148.389 26.2565 148.752C26.8749 149.004 29.4116 148.872 30.014 148.58C30.6419 148.276 31.3519 146.844 30.014 146.927Z" fill="#89C5CC"/>
<path opacity="0.5" fill-rule="evenodd" clip-rule="evenodd" d="M41.1505 125.129C40.0656 125.427 40.3947 131.584 40.3667 132.56C40.2901 135.235 39.9893 138.599 40.8783 141.174C41.4452 142.816 42.534 142.594 42.3486 140.865C42.1856 139.348 41.9061 137.848 41.7851 136.321C41.5115 132.865 41.1392 129.179 41.3976 125.721C41.5076 125.922 42.5369 127.786 42.7791 127.647C42.7059 127.69 41.592 125.013 41.1505 125.129Z" fill="#89C5CC"/>
<path opacity="0.5" fill-rule="evenodd" clip-rule="evenodd" d="M53.3546 122.861C51.159 122.894 48.9633 122.933 46.7683 122.994C45.023 123.042 42.2805 122.756 40.6799 123.49C38.7741 124.363 39.6783 126.31 41.4684 126.351C43.0519 126.388 44.7407 126.031 46.3386 125.976C50.6547 125.828 54.9785 125.797 59.2966 125.76C63.2019 125.726 67.2732 126.143 71.1442 125.557C71.7184 130.653 70.1654 135.772 70.6936 140.927C70.7755 141.727 70.7388 142.858 71.7581 143.04C73.0445 143.27 73.0974 141.997 73.1463 141.085C73.2855 138.48 73.2101 135.874 73.4009 133.266C73.5776 130.85 73.9256 128.38 73.6315 125.959C73.2699 122.981 71.8422 123.22 69.3184 123.096C63.9881 122.834 58.6908 122.783 53.3546 122.861Z" fill="#89C5CC"/>
<path opacity="0.5" fill-rule="evenodd" clip-rule="evenodd" d="M45.9965 140.959C44.8777 140.988 43.0195 140.643 42.3026 141.715C41.5567 142.831 42.4416 143.805 43.5262 144.034C44.81 144.305 46.4839 143.933 47.8163 143.929C49.2039 143.925 50.5919 143.94 51.9794 143.946C57.9283 143.969 63.9028 144.059 69.8474 143.813C70.6776 143.779 73.0338 144.057 73.6084 143.261C74.1183 142.555 73.7616 141.922 73.0901 141.562C71.9883 140.972 69.7254 141.196 68.5 141.15C66.9866 141.092 65.4713 141.073 63.9571 141.05C57.9804 140.957 51.9725 140.812 45.9965 140.959Z" fill="#89C5CC"/>
<path opacity="0.5" fill-rule="evenodd" clip-rule="evenodd" d="M51.0289 146.118C48.8027 146.156 46.4275 146.058 44.2233 146.396C42.2853 146.693 42.0467 148.566 44.1329 148.785C46.0501 148.986 48.3744 148.61 50.3009 148.486C50.9852 148.442 51.7809 148.505 52.1088 147.748C52.4512 146.958 51.7967 146.201 51.0289 146.118Z" fill="#89C5CC"/>
<path opacity="0.5" fill-rule="evenodd" clip-rule="evenodd" d="M67.8593 146.315C66.671 146.344 63.2003 145.834 62.6117 147.19C61.6319 149.449 66.3305 148.591 67.2318 148.558C68.3678 148.516 72.7954 149.179 72.7964 147.371C72.7974 145.598 68.9473 146.288 67.8593 146.315Z" fill="#89C5CC"/>
<path opacity="0.5" fill-rule="evenodd" clip-rule="evenodd" d="M0.257842 157.539C0.26068 161.648 0.00489607 165.795 0.379857 169.894C0.534908 171.589 0.508356 174.837 1.49055 176.274C2.18777 177.294 3.15477 177.222 3.5356 175.997C3.79017 175.179 3.38299 173.541 3.33759 172.665C3.29381 171.824 3.24273 170.984 3.20382 170.143C3.10389 167.977 3.1118 165.813 3.14159 163.646C3.16713 161.787 3.61485 159.327 3.19267 157.539C2.79906 155.872 0.257842 155.482 0.257842 157.539Z" fill="#69A1AC"/>
<path opacity="0.5" fill-rule="evenodd" clip-rule="evenodd" d="M41.5677 153.925C34.4363 154.104 27.289 153.944 20.1639 154.297C16.65 154.471 13.1499 154.853 9.65363 155.234C7.93591 155.421 6.21919 155.614 4.50451 155.825C3.98706 155.889 -0.312626 156.056 1.30457 157.69C2.01071 158.404 4.25784 157.659 5.14701 157.553C6.86858 157.35 8.59361 157.173 10.3176 156.991C13.5982 156.644 16.8829 156.315 20.1775 156.133C27.9367 155.703 35.728 155.832 43.495 155.546C45.596 155.468 47.6907 155.413 49.7925 155.495C50.3444 155.517 54.4 155.723 52.6391 154.226C51.8065 153.517 48.6672 153.883 47.6266 153.862C45.6071 153.82 43.5864 153.874 41.5677 153.925Z" fill="#69A1AC"/>
<path opacity="0.5" fill-rule="evenodd" clip-rule="evenodd" d="M51.1328 155.152C51.0417 153.155 53.7638 152.852 54.571 154.469C55.3864 156.102 54.8566 159.343 54.9093 161.154C55.0313 165.347 55.809 170.041 54.9876 174.188C54.7018 175.63 53.4848 176.388 52.6749 175.602L52.6716 175.607C52.283 176.18 50.8472 176.02 50.2185 176.063C48.305 176.193 46.4269 176.412 44.5304 176.696C40.7516 177.263 37.0057 177.611 33.1859 177.705C25.6314 177.892 18.0456 177.717 10.5024 178.235C8.8317 178.35 7.18633 178.546 5.54299 178.861C4.36946 179.085 2.10794 179.855 1.97072 177.917C1.80513 175.581 7.66669 175.585 9.34266 175.429C16.5389 174.76 23.8535 174.901 31.0718 175.002C34.5623 175.05 38.0464 175.157 41.5342 174.943C45.0187 174.73 48.6214 174.786 52.0803 174.412C52.0806 174.412 52.0809 174.412 52.0812 174.412C51.6344 172.686 51.6996 170.526 51.5746 168.762C51.2536 164.232 51.3395 159.687 51.1328 155.152Z" fill="#69A1AC"/>
<path opacity="0.5" fill-rule="evenodd" clip-rule="evenodd" d="M57.0613 156.616C56.0979 156.747 55.2943 157.572 55.7244 158.617C56.2661 159.933 57.8797 159.419 58.9456 159.336C62.3336 159.07 65.871 159.6 69.2181 159.201C70.1322 159.091 71.4584 158.594 70.6377 157.366C70.0207 156.443 67.773 156.605 66.8176 156.516C63.5497 156.214 60.3248 156.295 57.0613 156.616Z" fill="#C1DEE2"/>
<path opacity="0.5" fill-rule="evenodd" clip-rule="evenodd" d="M62.7793 162.36C61.4654 162.449 58.4067 162.379 57.853 163.874C56.8598 166.555 60.7501 165.61 61.9346 165.458C63.3106 165.281 66.5543 165.755 67.287 164.421C68.5971 162.036 63.9316 162.281 62.7793 162.36Z" fill="#C1DEE2"/>
<path opacity="0.5" fill-rule="evenodd" clip-rule="evenodd" d="M59.4009 168.243C58.7777 168.866 58.7767 169.98 59.4009 170.603C60.1652 171.366 61.8305 171.208 62.8347 171.264C64.2355 171.342 68.2585 172.082 68.9541 170.434C69.8925 168.209 66.2495 168.255 65.0513 168.129C63.6663 167.983 60.5487 167.095 59.4009 168.243Z" fill="#C1DEE2"/>
<path opacity="0.5" fill-rule="evenodd" clip-rule="evenodd" d="M10.2979 130.161C10.2979 132.553 14.0347 132.553 14.0347 130.161C14.0347 127.782 10.2979 127.746 10.2979 130.161Z" fill="#89C5CC"/>
<path opacity="0.5" fill-rule="evenodd" clip-rule="evenodd" d="M17.3862 130.189C17.3862 132.923 21.6425 132.918 21.6425 130.189C21.6425 127.464 17.3862 127.436 17.3862 130.189Z" fill="#89C5CC"/>
<path opacity="0.5" fill-rule="evenodd" clip-rule="evenodd" d="M13.0985 133.825C11.0295 134.396 12.9355 136.149 13.8962 136.549C15.423 137.186 17.5068 137.655 19.034 136.701C19.6416 136.321 20.135 135.816 19.6897 135.079C19.2152 134.295 18.5656 134.644 17.8432 134.716C16.9281 134.808 16.1885 134.794 15.3049 134.501C14.6453 134.282 13.8178 133.627 13.0985 133.825Z" fill="#89C5CC"/>
<path opacity="0.5" fill-rule="evenodd" clip-rule="evenodd" d="M50.627 130.313C50.627 131.931 53.1398 131.931 53.1398 130.313C53.1398 128.695 50.627 128.695 50.627 130.313Z" fill="#89C5CC"/>
<path opacity="0.5" fill-rule="evenodd" clip-rule="evenodd" d="M56.1841 130.557C56.1841 132.355 58.9756 132.355 58.9756 130.557C58.9756 128.76 56.1841 128.76 56.1841 130.557Z" fill="#89C5CC"/>
<path opacity="0.5" fill-rule="evenodd" clip-rule="evenodd" d="M55.9775 134.459C54.5111 134.648 50.27 135.077 50.0327 136.884C49.6666 139.672 54.3137 137.416 55.3744 137.197C56.7252 136.918 57.9316 136.991 59.2802 137.045C60.0206 137.075 61.0054 137.195 60.9278 136.067C60.8005 134.216 57.2593 134.294 55.9775 134.459Z" fill="#89C5CC"/>
<path opacity="0.5" fill-rule="evenodd" clip-rule="evenodd" d="M19.109 160.166C18.0462 160.449 16.6558 162.286 17.387 163.41C18.5861 165.254 19.1149 162.423 19.6167 162.151C20.5298 161.655 21.271 163.467 22.2253 162.516C23.731 161.017 20.057 159.912 19.109 160.166Z" fill="#69A1AC"/>
<path opacity="0.5" fill-rule="evenodd" clip-rule="evenodd" d="M31.2872 158.803C30.0267 158.815 27.3657 160.599 27.1772 161.916C27.0653 162.699 27.5844 163.451 28.4284 163.461C29.5776 163.475 29.9428 161.981 30.939 161.669C32.0136 161.332 31.8541 162.108 32.7822 162.51C33.4614 162.805 34.3108 162.681 34.5467 161.847C34.9918 160.272 32.5823 158.778 31.2872 158.803Z" fill="#69A1AC"/>
<path opacity="0.5" fill-rule="evenodd" clip-rule="evenodd" d="M21.6392 166.344C19.6231 167.525 22.9404 170.057 24.0904 170.373C25.8266 170.851 29.3208 169.959 29.7323 167.839C29.896 166.996 29.3681 166.231 28.4365 166.382C27.6696 166.507 27.1777 167.469 26.4673 167.813C25.5084 168.278 24.6559 168.246 23.8411 167.546C23.1774 166.976 22.8219 165.655 21.6392 166.344Z" fill="#69A1AC"/>
<path opacity="0.5" fill-rule="evenodd" clip-rule="evenodd" d="M23.1004 183.797C21.2991 184.181 19.4681 183.923 17.6582 184.284C15.8126 184.652 14.7096 185.349 12.9949 184.647C12.9142 184.613 12.8337 184.579 12.7533 184.545C11.4261 183.974 10.0351 183.804 8.64593 184.715C7.82385 185.254 5.32823 187.118 5.62901 188.256C6.28084 190.722 9.08899 186.855 9.80507 186.478C11.1705 185.759 12.1067 186.677 13.5125 186.937C15.1964 187.247 16.5513 186.357 18.1375 186.003C19.9927 185.589 22.0797 185.444 23.967 185.223C24.7127 185.135 27.5371 185.725 27.792 184.797C28.23 183.203 23.8083 183.646 23.1004 183.797Z" fill="#C1DEE2"/>
<path opacity="0.5" fill-rule="evenodd" clip-rule="evenodd" d="M36.0956 188.763C36.2134 188.852 36.1189 188.78 36.0956 188.763V188.763ZM41.1404 183.7C42.6824 183.543 47.616 182.442 48.6291 184.035C49.2888 185.072 48.2417 188.902 47.2429 189.397C46.4445 189.793 44.5849 189.355 43.7089 189.324C42.079 189.267 40.4456 189.241 38.8174 189.14C38.2714 189.106 36.5143 189.206 36.0863 188.723C35.5808 188.153 35.6033 185.111 35.4843 184.357C36.9021 184.816 39.6579 183.85 41.1404 183.7ZM44.4331 182.138C42.4582 182.223 40.4837 182.372 38.5235 182.637C37.4309 182.784 36.3238 183.177 35.3147 183.363C34.9894 183.423 34.4614 183.256 34.0625 183.449C32.8969 184.012 33.9176 187.818 34.1987 188.835C34.6304 190.397 35.717 190.65 37.2393 190.797C39.2447 190.991 41.2912 190.93 43.3028 190.906C45.2418 190.882 47.8564 191.312 48.9444 189.366C49.6477 188.109 50.4021 185.18 49.801 183.779C49.0101 181.935 46.0572 182.07 44.4331 182.138Z" fill="#C1DEE2"/>
<path opacity="0.5" fill-rule="evenodd" clip-rule="evenodd" d="M66.5488 189.808C66.4432 189.944 66.4432 189.944 66.5488 189.808V189.808ZM66.9815 189.287C66.9489 189.336 66.7973 189.496 66.9815 189.287V189.287ZM62.2718 189.143C63.1424 188.98 64.0133 188.818 64.8848 188.659C64.0595 189.814 63.1904 189.336 61.7805 189.236C61.9443 189.205 62.1081 189.174 62.2718 189.143ZM58.1185 188.735C58.3392 188.661 58.5597 188.587 58.7804 188.513C58.7738 188.681 58.8098 188.838 58.8887 188.985C58.5109 188.944 58.1335 188.9 57.7565 188.854C57.8771 188.814 57.9979 188.774 58.1185 188.735ZM56.1938 187.314C56.1815 187.011 56.6373 187.219 56.8986 187.199C56.3949 187.642 56.16 187.68 56.1938 187.314ZM63.0771 183.877C63.1434 183.792 63.2311 183.797 63.3404 183.89C63.2212 183.93 62.7621 184.124 63.0771 183.877ZM67.541 183.352C67.5527 183.352 67.8004 183.686 67.541 183.352V183.352ZM67.4157 183.243C67.4806 183.292 67.4806 183.292 67.4157 183.243V183.243ZM66.8585 183.178C67.7712 183.331 67.7019 184.402 66.8585 183.178V183.178ZM56.1357 183.105C55.9502 183.258 56.0136 183.109 56.1357 183.105V183.105ZM59.626 180.825C58.0765 180.915 55.2323 180.824 53.9382 181.65C52.2494 182.727 53.138 186.435 53.2892 188.061C53.5126 190.464 54.6435 191.148 56.9073 191.4C59.6088 191.701 62.3845 191.758 65.1001 191.686C67.5456 191.622 68.9384 190.781 69.3864 188.207C69.5236 187.419 69.8718 186.201 69.8608 185.447C69.8533 184.923 69.5925 184.685 69.4938 184.24C68.9322 181.706 67.9929 181.406 65.3956 181.295C63.4839 181.214 61.5019 180.727 59.626 180.825Z" fill="#89C5CC"/>
</g>
<g opacity="0.5">
<path opacity="0.5" fill-rule="evenodd" clip-rule="evenodd" d="M145.744 122.623C149.683 122.707 154.153 124.887 153.53 129.504C153.074 132.887 150.144 135.633 146.751 135.87C143.104 136.124 139.249 133.326 138.753 129.614C138.196 125.439 141.891 122.54 145.744 122.623ZM143.812 120.744C142.215 120.982 140.689 121.82 139.282 122.571C138.746 122.858 136.024 124.607 138.159 125.041C133.016 133.333 145.119 141.035 151.925 135.646C154.981 133.226 156.589 128.638 154.614 125.046C152.571 121.332 147.726 120.156 143.812 120.744Z" fill="#89C5CC"/>
<path opacity="0.5" fill-rule="evenodd" clip-rule="evenodd" d="M142.871 127.801C142.871 129.35 145.275 129.35 145.275 127.801C145.275 126.253 142.871 126.253 142.871 127.801Z" fill="#89C5CC"/>
<path opacity="0.5" fill-rule="evenodd" clip-rule="evenodd" d="M147.329 128.049C147.329 129.728 149.936 129.728 149.936 128.049C149.936 126.37 147.329 126.37 147.329 128.049Z" fill="#89C5CC"/>
<path opacity="0.5" fill-rule="evenodd" clip-rule="evenodd" d="M144.32 131.369C143.969 132.643 147.97 133.296 148.103 131.822C148.166 131.118 144.564 130.48 144.32 131.369Z" fill="#89C5CC"/>
<path opacity="0.5" fill-rule="evenodd" clip-rule="evenodd" d="M156.047 130.583C160.65 130.031 165.396 130.286 170.021 130.418C171.179 130.452 172.336 130.484 173.494 130.503C174.23 130.516 175.819 130.869 176.461 130.524C179.092 129.114 173.932 128.432 173.201 128.367C168.601 127.989 161.501 127.854 156.886 128.033C155.522 128.085 155.227 130.681 156.047 130.583Z" fill="#89C5CC"/>
<path opacity="0.5" fill-rule="evenodd" clip-rule="evenodd" d="M176.759 153.458C176.799 148.636 176.972 143.782 177.343 138.975C177.493 137.016 177.675 135.059 177.825 133.1C177.895 132.177 178.224 130.885 177.681 130.075C177.122 129.24 175.895 129.067 175.156 129.806C174.271 130.952 174.528 132.873 174.418 134.258C174.249 136.388 174.044 138.516 173.943 140.651C173.747 144.782 173.701 148.985 174.033 153.11C174.19 155.056 174.53 156.956 174.982 158.854C175.188 159.718 176.826 163.568 176.482 164.099C175.948 164.922 172.002 164.611 171.147 164.634C168.951 164.693 166.754 164.731 164.557 164.773C162.676 164.809 160.796 164.834 158.915 164.851C158.168 164.858 153.78 164.725 154.753 165.832C143.868 166.59 132.775 165.324 121.957 164.89C121.41 164.868 120.516 164.713 119.691 164.668C119.592 164.27 119.51 163.914 119.49 163.666C119.348 161.928 119.311 160.184 119.157 158.446C118.875 155.267 118.328 152.119 118.003 148.945C117.678 145.775 117.711 142.595 117.522 139.416C117.489 138.872 117.413 134.41 116.286 133.327C116.82 133.529 117.681 133.555 118.177 133.515C122.19 133.192 126.174 132.494 130.153 131.896C131.291 131.725 133.875 131.846 134.819 131.277C135.636 130.785 135.959 129.058 134.538 129.198C130.57 129.623 126.624 130.282 122.688 130.932C121.635 131.105 120.585 131.291 119.535 131.481C118.834 131.607 116.983 131.598 116.439 132.02C115.778 132.533 115.708 132.882 115.932 133.114C115.621 133.029 115.248 133.163 114.8 133.611C113.953 134.713 114.749 137.428 114.85 138.72C114.972 140.27 115.031 141.823 115.102 143.376C115.238 146.381 115.553 149.344 116.037 152.313C116.579 155.639 117.04 158.978 117.583 162.303C117.724 163.169 117.909 164.013 118.144 164.85C116.68 165.598 117.676 166.789 118.837 167C118.845 167.001 118.854 167.002 118.862 167.004C119.224 167.886 119.73 168.704 120.125 167.521C120.155 167.431 120.17 167.319 120.173 167.194C123.172 167.533 126.468 167.322 129.42 167.443C135.815 167.704 142.249 168.096 148.65 167.897C151.184 167.819 153.726 167.594 156.239 167.256C157.711 167.058 159.189 166.821 160.638 166.493C160.742 166.47 160.899 166.445 161.082 166.415C161.111 166.414 161.141 166.413 161.17 166.413C163.388 166.379 165.604 166.32 167.821 166.228C169.681 166.151 171.55 166.111 173.405 165.936C174.557 165.826 176.991 165.847 177.698 164.689C178.341 163.636 177.266 160.923 177.113 159.741C176.845 157.658 176.742 155.556 176.759 153.458Z" fill="#C1DEE2"/>
<path opacity="0.5" fill-rule="evenodd" clip-rule="evenodd" d="M154.279 139.536C152.507 139.688 150.868 140.52 149.079 140.531C147.577 140.539 146.099 140.09 144.589 140.157C142.818 140.234 141.844 141.379 140.293 141.762C139.058 142.067 138.28 141.122 137.194 140.704C135.822 140.176 134.809 140.448 133.633 141.247C132.77 141.834 130.755 143.15 130.771 144.337C130.817 147.932 135.012 142.966 135.858 142.906C136.982 142.826 138.237 144.106 139.433 144.179C141.014 144.276 142.027 143.257 143.483 142.886C144.955 142.511 146.546 142.971 148.022 143.113C149.705 143.276 151.179 142.901 152.808 142.499C154.386 142.11 155.732 142.131 157.336 142.457C158.418 142.678 161.115 143.961 161.589 142.312C162.233 140.065 155.518 139.431 154.279 139.536Z" fill="#89C5CC"/>
<path opacity="0.5" fill-rule="evenodd" clip-rule="evenodd" d="M154.819 146.392C151.187 146.744 147.533 147.053 143.884 147.152C142.304 147.195 136.229 146.518 136.768 148.526C137.229 150.247 145.496 149.163 147.18 149.032C149.039 148.888 150.895 148.686 152.745 148.452C153.4 148.369 154.983 148.455 155.446 147.905C155.887 147.381 155.669 146.307 154.819 146.392Z" fill="#89C5CC"/>
<path opacity="0.5" fill-rule="evenodd" clip-rule="evenodd" d="M129.763 155.534C129.68 155.569 129.68 155.569 129.763 155.534V155.534ZM130.529 155.523C131.434 155.495 131.24 155.017 132.143 155.266C132.56 155.381 132.603 155.211 132.926 155.609C133.556 156.385 132.962 158.076 132.341 158.702C130.041 161.019 127.281 155.626 130.529 155.523ZM130.529 153.25C124.232 153.461 126.867 163.185 132.347 161.2C134.61 160.38 136.033 156.687 134.702 154.612C134.054 153.603 133.228 153.423 132.143 153.353C131.892 153.337 131.575 153.703 131.417 153.686C131.044 153.647 131.079 153.229 130.529 153.25Z" fill="#89C5CC"/>
<path opacity="0.5" fill-rule="evenodd" clip-rule="evenodd" d="M145.586 155.867C145.474 155.833 147.574 156.443 147.344 156.204C147.835 156.714 147.175 157.92 146.621 158.13C145.277 158.64 144.523 156.552 145.586 155.867ZM146.518 153.231C144.547 153.51 143.025 154.331 142.756 156.522C142.507 158.545 143.874 160.594 146.031 160.633C150.732 160.719 150.875 152.623 146.518 153.231Z" fill="#89C5CC"/>
<path opacity="0.5" fill-rule="evenodd" clip-rule="evenodd" d="M167.978 155.956C168.253 159.548 164.527 156.26 167.978 155.956V155.956ZM166.379 152.113C166.053 152.67 166.331 153.26 166.823 153.584C162.427 154.513 163.423 161.125 167.895 160.148C170.17 159.651 170.588 157.26 170.249 155.286C170.088 154.347 167.748 149.773 166.379 152.113Z" fill="#89C5CC"/>
</g>
<path opacity="0.5" fill-rule="evenodd" clip-rule="evenodd" d="M189.516 155.563C187.664 155.796 183.287 157.242 183.325 158.796C183.385 161.221 187.105 158.572 187.932 158.216C192.377 156.302 198.134 158.782 202.763 159.31C204.885 159.552 209.036 159.999 210.91 158.993C214.243 157.203 206.534 157.651 205.553 157.579C200.216 157.189 194.908 154.881 189.516 155.563Z" fill="#C1DEE2"/>
<g opacity="0.5">
<path opacity="0.5" fill-rule="evenodd" clip-rule="evenodd" d="M255.756 138.511C255.755 140.992 255.63 143.525 256.087 145.977C256.226 146.719 256.335 148.141 257.118 148.526C257.905 148.913 258.668 148.478 258.863 147.672C259.091 146.734 258.591 145.33 258.541 144.345C258.471 143 258.466 141.653 258.466 140.306C258.465 139.333 258.785 137.768 257.637 137.268C256.783 136.896 255.756 137.588 255.756 138.511Z" fill="#C1DEE2"/>
<path opacity="0.5" fill-rule="evenodd" clip-rule="evenodd" d="M294.999 134.586C286.775 135.411 278.432 135.583 270.178 136.013C266.363 136.212 261.752 135.958 258.157 137.435C257.49 137.709 255.1 139.235 257.04 139.856C257.645 140.05 258.26 139.399 258.757 139.18C259.584 138.817 260.541 138.705 261.424 138.563C268.924 137.359 276.768 137.569 284.346 137.006C286.287 136.862 288.23 136.713 290.167 136.523C291.551 136.387 294.461 135.389 295.738 135.9C297.921 136.771 297.87 142.435 297.913 144.383C297.935 145.39 296.957 149.006 298.902 148.64C300.458 148.346 299.894 144.589 299.773 143.562C299.455 140.868 298.912 134.19 294.999 134.586Z" fill="#C1DEE2"/>
<path opacity="0.5" fill-rule="evenodd" clip-rule="evenodd" d="M298.032 148.508C290.888 149.153 283.58 148.52 276.407 148.774C272.647 148.907 268.891 149.119 265.131 149.243C263.504 149.297 261.876 149.299 260.249 149.311C259.471 149.316 255.929 149.788 258.12 151.33C259.09 152.013 262.182 151.463 263.295 151.45C264.967 151.43 266.638 151.36 268.309 151.295C272.178 151.144 276.046 150.934 279.918 150.829C283.622 150.729 287.327 150.708 291.031 150.607C292.874 150.557 294.742 150.501 296.568 150.232C296.98 150.171 298.319 150.123 298.605 149.664C298.875 149.229 298.686 148.445 298.032 148.508Z" fill="#89C5CC"/>
<path opacity="0.5" fill-rule="evenodd" clip-rule="evenodd" d="M262.922 143.148C262.884 143.239 262.884 143.239 262.922 143.148V143.148ZM266.016 142.209C266.129 142.256 266.129 142.256 266.016 142.209V142.209ZM265.871 142.182C267.538 143.881 264.974 145.909 263.413 144.251C261.755 142.492 264.798 142.188 265.871 142.182ZM264.103 139.612C258.36 140.634 260.394 148.285 265.757 147.179C268.111 146.694 269.458 144.322 268.647 142.045C268.331 141.155 267.641 140.178 266.68 139.897C266.2 139.758 265.776 139.978 265.32 139.926C264.885 139.877 264.643 139.515 264.103 139.612Z" fill="#C1DEE2"/>
<path opacity="0.5" fill-rule="evenodd" clip-rule="evenodd" d="M286.079 141.765C282.616 141.775 279.153 141.923 275.691 141.988C274.629 142.008 271.899 141.533 271.895 143.207C271.89 144.995 274.931 144.335 275.943 144.31C279.377 144.228 282.82 144.078 286.24 143.751C287.104 143.668 290.095 143.811 290.092 142.636C290.089 141.392 286.777 141.765 286.079 141.765Z" fill="#C1DEE2"/>
<path opacity="0.5" fill-rule="evenodd" clip-rule="evenodd" d="M294.35 153.437C285.786 153.666 277.235 153.746 268.677 154.185C265.477 154.349 262.28 154.47 259.075 154.47C258.458 154.47 257.214 154.231 256.634 154.62C255.057 155.674 256.852 156.579 257.88 156.636C264.91 157.026 272.041 156.055 279.067 155.836C283.18 155.708 287.294 155.67 291.404 155.461C292.526 155.404 293.647 155.338 294.767 155.251C295.411 155.201 297.113 155.338 297.634 154.961C299.906 153.317 295.116 153.416 294.35 153.437Z" fill="#89C5CC"/>
<path opacity="0.5" fill-rule="evenodd" clip-rule="evenodd" d="M255.057 157.623C254.977 159.843 254.968 162.024 255.259 164.231C255.373 165.1 255.426 166.086 256.444 166.306C257.369 166.507 257.838 165.807 258.03 165.032C258.497 163.138 258.086 160.413 258.08 158.446C258.078 157.473 258.077 156.385 256.875 156.165C255.957 155.997 255.092 156.66 255.057 157.623Z" fill="#89C5CC"/>
<path opacity="0.5" fill-rule="evenodd" clip-rule="evenodd" d="M303.427 162.973C289.564 163.703 275.719 164.341 261.846 164.927C260.764 164.973 252.36 164.881 255.298 167.811C256.206 168.716 258.544 168.103 259.717 168.046C261.481 167.959 263.246 167.893 265.01 167.803C272.003 167.447 279.014 167.351 286.002 166.952C289.847 166.732 293.684 166.388 297.509 165.941C299.329 165.728 301.588 165.75 303.292 165.037C304.169 164.67 305.115 162.883 303.427 162.973Z" fill="#89C5CC"/>
<path opacity="0.5" fill-rule="evenodd" clip-rule="evenodd" d="M295.456 151.714C294.402 152.764 294.944 154.834 295.024 156.132C295.133 157.917 295.266 159.704 295.489 161.479C295.634 162.633 295.557 164.428 296.173 165.424C296.893 166.591 298.48 166.462 299.132 165.334C299.709 164.338 299.417 162.24 299.402 161.135C299.381 159.608 299.286 158.078 299.195 156.553C299.119 155.279 299.408 153.237 298.707 152.146C297.995 151.038 296.444 150.732 295.456 151.714Z" fill="#89C5CC"/>
<path opacity="0.5" fill-rule="evenodd" clip-rule="evenodd" d="M263.77 159.86C263.646 159.955 263.646 159.955 263.77 159.86V159.86ZM266.232 159.551C268.53 160.013 264.815 162.695 263.641 160.854C263.457 160.567 263.362 160.213 263.656 159.963C263.925 159.735 264.094 160.139 264.348 160.031C264.785 159.843 265.766 159.534 266.232 159.551ZM265.915 157.35C264.347 157.474 262.19 157.571 261.414 159.143C260.37 161.254 262.154 163.322 264.218 163.643C266.204 163.952 269.169 162.852 269.328 160.537C269.456 158.67 267.68 157.206 265.915 157.35Z" fill="#89C5CC"/>
<path opacity="0.5" fill-rule="evenodd" clip-rule="evenodd" d="M279.011 158.466C277.387 158.492 274.195 158.012 272.78 158.803C271.381 159.586 272.005 160.98 273.282 161.314C274.126 161.534 275.506 161.179 276.384 161.143C277.54 161.096 278.697 161.086 279.854 161.07C281.8 161.044 283.744 161.066 285.69 161.066C287.677 161.066 289.698 161.12 291.682 160.974C294.192 160.789 294.124 158.91 291.67 158.675C287.5 158.276 283.194 158.4 279.011 158.466Z" fill="#89C5CC"/>
<path opacity="0.5" fill-rule="evenodd" clip-rule="evenodd" d="M274.863 179.509C274.863 180.402 275.655 179.509 275.649 179.509C275.655 179.509 274.863 178.616 274.863 179.509Z" fill="#89C5CC"/>
<path opacity="0.5" fill-rule="evenodd" clip-rule="evenodd" d="M256.941 172.323C256.992 174.918 257.026 177.515 257.137 180.108C257.172 180.928 256.937 182.528 257.931 182.946C259.037 183.412 259.381 182.252 259.509 181.466C259.912 178.977 259.517 176.134 259.478 173.615C259.465 172.77 259.648 171.592 258.687 171.171C257.903 170.827 256.925 171.465 256.941 172.323Z" fill="#89C5CC"/>
<path opacity="0.5" fill-rule="evenodd" clip-rule="evenodd" d="M299.625 172.363C299.69 172.518 299.69 172.518 299.625 172.363V172.363ZM299.717 172.337C299.77 172.359 299.985 172.449 299.717 172.337V172.337ZM278.75 170.24C274.765 170.302 270.778 170.349 266.796 170.52C265.096 170.593 263.377 170.652 261.684 170.812C260.484 170.925 257.504 170.972 256.726 171.952C255.121 173.975 258.525 173.423 259.259 173.259C260.593 172.96 261.955 172.864 263.319 172.792C266.277 172.636 269.237 172.553 272.199 172.493C280.232 172.332 288.27 172.356 296.304 172.32C297.082 172.317 298.488 172.004 299.206 172.318C299.926 172.634 299.885 173.409 299.96 174.309C300.06 175.506 299.27 177.788 299.871 178.795C300.805 180.357 302.163 179.031 302.371 177.892C302.657 176.318 302.203 174.428 301.758 172.924C301.13 170.802 300.259 170.717 298.205 170.551C295.806 170.357 293.415 170.24 291.008 170.218C286.923 170.18 282.834 170.176 278.75 170.24Z" fill="#89C5CC"/>
<path opacity="0.5" fill-rule="evenodd" clip-rule="evenodd" d="M294.509 180.966C285.867 181.969 276.979 181.378 268.29 181.413C266.177 181.422 264.063 181.439 261.952 181.541C260.837 181.595 258.194 181.288 257.431 182.148C255.821 183.96 258.721 184.224 259.78 184.149C261.92 183.997 264.066 183.927 266.212 183.911C273.772 183.852 281.374 184.205 288.928 183.832C292.092 183.676 295.186 183.135 298.292 182.53C298.98 182.396 303.69 181.501 301.004 180.428C299.417 179.794 296.177 180.771 294.509 180.966Z" fill="#89C5CC"/>
<path opacity="0.5" fill-rule="evenodd" clip-rule="evenodd" d="M269.276 177.648C269.216 177.725 269.216 177.725 269.276 177.648V177.648ZM269.218 177.635C269.197 177.69 269.134 177.827 269.218 177.635V177.635ZM268.673 176.932C268.685 176.948 268.737 177.014 268.673 176.932V176.932ZM268.652 176.927C268.86 177.175 269 177.452 269.072 177.757C267.281 178.242 266.591 176.794 268.652 176.927ZM268.538 176.859C268.539 176.859 268.791 176.965 268.538 176.859V176.859ZM265.597 174.701C264.438 176.144 263.481 177.825 264.926 179.473C266.218 180.947 268.817 181.137 270.457 180.153C272.146 179.139 272 177.006 270.822 175.613C270.063 174.716 269.448 174.741 268.348 174.595C267.598 174.495 266.233 173.913 265.597 174.701Z" fill="#89C5CC"/>
<path opacity="0.5" fill-rule="evenodd" clip-rule="evenodd" d="M277.577 177.371C277.577 179.292 285.874 178.465 287.351 178.463C288.587 178.461 296.064 179.143 295.528 177.166C295.087 175.542 287.722 176.349 286.153 176.347C284.797 176.345 277.577 175.414 277.577 177.371Z" fill="#89C5CC"/>
</g>
<g opacity="0.5">
<path opacity="0.5" fill-rule="evenodd" clip-rule="evenodd" d="M154.341 195.371C158.497 195.975 162.82 197.928 162.784 202.764C162.753 206.83 159.342 211.157 154.962 210.914C151.02 210.695 147.309 206.386 146.815 202.693C146.559 200.78 147.038 198.72 148.164 197.146C149.639 195.084 151.979 195.087 154.341 195.371ZM152.379 192.743C149.373 192.759 147.174 193.846 145.314 196.141C144.647 196.963 143.871 197.849 143.363 198.781C142.888 199.651 142.972 201.865 144.599 200.827C144.199 205.112 146.704 209.271 150.305 211.467C154.22 213.854 158.645 213.389 161.903 210.043C164.886 206.981 165.935 201.808 163.753 198.02C161.573 194.234 156.52 192.702 152.379 192.743Z" fill="#89C5CC"/>
<path opacity="0.5" fill-rule="evenodd" clip-rule="evenodd" d="M161.392 191.594C159.467 193.004 157.71 194.86 156.251 196.743C154.824 198.584 153.881 200.882 152.168 202.487C151.303 201.545 150.289 199 148.563 200.01C147.13 200.848 148.053 202.288 148.75 203.234C150.552 205.677 152.552 206.66 154.863 204.246C156.961 202.055 158.152 199.131 160.114 196.813C160.975 195.796 162.304 194.787 162.99 193.664C163.611 192.646 162.843 190.528 161.392 191.594Z" fill="#89C5CC"/>
</g>
<g opacity="0.5">
<path opacity="0.5" fill-rule="evenodd" clip-rule="evenodd" d="M231.984 32.4407C233.243 32.4474 234.946 32.1757 236.2 32.467C238.642 33.0336 238.487 37.2179 238.537 39.2411C238.627 42.8703 238.575 46.6856 238.28 50.3062C238.178 51.5564 237.268 53.1408 236.23 51.4176C235.652 50.4567 235.91 48.2122 235.909 47.1506C235.906 43.3766 236.498 39.4885 235.932 35.7339C235.746 34.503 235.787 34.4199 234.535 34.4458C233.541 34.4664 232.547 34.4994 231.554 34.5202C229.53 34.5627 227.506 34.5904 225.483 34.6644C224.715 34.6927 221.955 35.1748 219.802 35.173C219.803 35.1902 219.805 35.2074 219.806 35.2249C219.835 36.68 219.121 38.4459 219.024 39.9768C218.791 43.6588 219.07 47.4269 218.725 51.0903C218.714 51.2015 218.709 51.32 218.702 51.4393C218.767 51.4289 218.83 51.4219 218.891 51.418C220.495 51.3163 222.121 51.3584 223.729 51.3211C227.02 51.2449 230.442 51.4247 233.715 51.0394C234.38 50.9532 234.613 51.8062 234.314 52.2484C233.979 52.7448 232.907 52.7195 232.411 52.793C230.959 53.008 229.487 53.083 228.021 53.148C226.482 53.2161 224.941 53.2671 223.4 53.31C222.066 53.3468 219.106 53.9047 217.871 53.3464C216.909 52.9112 216.932 52.428 217.325 52.0537C217.086 51.5312 217.126 50.6746 217.075 50.2636C216.861 48.5411 216.732 46.8407 216.729 45.1035C216.723 41.7007 216.73 38.1666 217.672 34.8728C217.295 34.7077 217.067 34.4644 217.068 34.1136C217.073 32.0305 224.717 32.5279 226.268 32.4866C228.173 32.4369 230.078 32.4304 231.984 32.4407Z" fill="#89C5CC"/>
<path opacity="0.5" fill-rule="evenodd" clip-rule="evenodd" d="M266.483 53.5604C264.223 54.1706 259.22 53.7659 258.299 53.7664C256.629 53.767 247.559 54.8403 247.544 52.9087C247.543 52.7588 247.591 52.6245 247.683 52.5042C247.433 52.2489 247.207 51.8739 247.063 51.4059C246.543 49.7262 246.494 47.9135 246.456 46.1716C246.373 42.4108 246.415 38.6432 246.391 34.8812V34.9943C246.055 34.541 246.255 34.0227 246.676 33.6611C247.815 32.6838 251.097 32.9318 252.542 32.8554C254.622 32.7453 256.704 32.7201 258.787 32.7124C260.993 32.7012 263.202 32.7409 265.406 32.8087C266.224 32.8337 271.911 32.9768 269.369 34.3551C269.224 34.434 269.06 34.4999 268.881 34.5546C268.987 35.1806 268.999 35.8275 268.982 36.1391C268.874 38.1211 268.828 40.1067 268.74 42.0897C268.642 44.3031 268.548 46.5163 268.472 48.7307C268.432 49.9013 268.832 52.6232 267.906 53.4684C267.281 54.0382 266.854 53.9239 266.567 53.5368L266.483 53.5604ZM262.738 34.6031C260.612 34.6029 258.487 34.5788 256.36 34.6209C254.064 34.6664 251.743 34.6933 249.463 34.9962C249.338 35.0128 249.187 35.0449 249.021 35.0838C249.369 36.535 248.947 38.8695 248.946 40.2144C248.941 43.9825 249.08 47.7302 249.165 51.4786C249.168 51.6015 249.165 51.7158 249.157 51.8215C251.686 51.2809 256.405 51.6418 257.397 51.6381C259.246 51.6309 261.096 51.6565 262.943 51.7304C263.519 51.7534 264.927 51.6426 266.04 51.7658C266.03 51.6649 266.023 51.573 266.019 51.4937C265.918 49.5004 266.028 47.4862 266.092 45.4929C266.157 43.4839 266.256 41.4764 266.334 39.4677C266.373 38.4345 266.112 36.2777 266.395 34.7908C265.052 34.7655 263.644 34.6032 262.738 34.6031Z" fill="#89C5CC"/>
<path opacity="0.5" fill-rule="evenodd" clip-rule="evenodd" d="M226.334 53.2313C224.967 54.0297 225.704 57.2236 226.178 58.3283C226.956 60.1446 228.536 61.5658 230.241 62.5087C233.687 64.4142 238.654 63.9081 241.26 67.2118C241.287 67.246 242.188 68.1374 242.393 66.983C242.561 66.0355 240.879 64.5886 240.228 64.1136C238.375 62.7631 235.998 62.3276 233.855 61.653C231.569 60.9335 229.06 59.6071 228.102 57.2513C227.763 56.4169 228.409 52.0134 226.334 53.2313Z" fill="#C1DEE2"/>
<path opacity="0.5" fill-rule="evenodd" clip-rule="evenodd" d="M257.589 54.7669C256.336 55.1122 257.165 56.8356 257.163 57.6986C257.16 58.7751 256.816 59.9019 256.152 60.761C254.469 62.9398 251.174 63.2663 248.703 63.8909C246.909 64.3448 242.616 65.318 242.448 67.7436C242.261 70.4524 246.05 67.156 246.37 67.0208C249.912 65.722 254.495 65.4711 257.229 62.6121C258.357 61.4319 259.024 59.8568 259.13 58.231C259.19 57.3157 259.2 54.3269 257.589 54.7669Z" fill="#C1DEE2"/>
<path opacity="0.5" fill-rule="evenodd" clip-rule="evenodd" d="M240.809 69.6097C246.023 68.2364 250.881 71.889 251.495 77.1435C252.144 82.6888 247.963 87.153 242.45 87.3977C237.6 87.6129 231.732 84.1416 231.701 78.7936C231.672 73.7818 236.47 70.7502 240.809 69.6097ZM243.35 72.0195C243.632 72.4028 243.887 73.0145 243.318 73.3477C242.426 73.8674 242.263 72.5191 241.632 72.3411C240.998 72.1627 239.979 72.8292 239.451 73.2178C238.554 73.8779 236.071 77.7197 234.867 75.6333C231.214 81.9391 240.321 86.6582 245.5 84.2718C251.187 81.651 250.08 72.0695 243.35 72.0195Z" fill="#89C5CC"/>
<path opacity="0.5" fill-rule="evenodd" clip-rule="evenodd" d="M238.577 77.115C238.577 78.2654 240.394 78.2654 240.394 77.115C240.394 75.9778 238.577 75.929 238.577 77.115Z" fill="#89C5CC"/>
<path opacity="0.5" fill-rule="evenodd" clip-rule="evenodd" d="M241.774 76.9C241.774 78.3091 244.001 78.3091 244.001 76.9C244.001 75.5069 241.774 75.4474 241.774 76.9Z" fill="#89C5CC"/>
<path opacity="0.5" fill-rule="evenodd" clip-rule="evenodd" d="M239.486 80.1831C237.665 81.254 242.873 83.3819 243.079 81.2075C243.168 80.2693 242.259 80.5224 241.653 80.4534C241.073 80.3872 240.036 79.8631 239.486 80.1831Z" fill="#89C5CC"/>
<path opacity="0.5" fill-rule="evenodd" clip-rule="evenodd" d="M238.696 87.7813C238.775 90.5166 238.737 93.2502 239.256 95.9475C239.355 96.4597 239.423 98.3178 239.828 98.6983C240.825 99.6345 240.841 97.8402 240.88 97.1527C241.018 94.6899 240.759 92.1504 240.702 89.6826C240.69 89.1514 240.831 88.0511 240.58 87.5369C240.182 86.7207 238.657 86.4784 238.696 87.7813Z" fill="#C1DEE2"/>
<path opacity="0.5" fill-rule="evenodd" clip-rule="evenodd" d="M236.749 85.5635C232.756 90.0433 227.258 89.7134 221.719 90.1056C218.792 90.3129 215.833 90.7385 213.478 92.6309C212.383 93.5112 211.439 94.6139 210.804 95.8705C210.527 96.4199 209.211 99.5897 211.187 98.8376C211.888 98.571 212.578 96.4747 213.031 95.8547C213.894 94.6738 214.999 93.699 216.324 93.0652C218.88 91.8428 221.932 91.8636 224.704 91.7085C227.601 91.5465 230.711 91.3949 233.374 90.1355C234.626 89.543 235.802 88.8041 236.81 87.8519C237.17 87.5115 237.943 86.9334 238 86.4129C238.066 85.818 237.494 84.7289 236.749 85.5635Z" fill="#C1DEE2"/>
<path opacity="0.5" fill-rule="evenodd" clip-rule="evenodd" d="M216.593 99.3128C212.842 99.438 209.096 99.5897 205.351 99.8268C204.584 99.8754 202.025 99.7204 202.676 101.293C203.199 102.553 206.32 101.719 207.352 101.658C211.255 101.426 215.173 101.346 219.068 100.995C219.943 100.916 223.897 100.948 222.264 99.3978C221.487 98.66 217.666 99.2762 216.593 99.3128Z" fill="#89C5CC"/>
<path opacity="0.5" fill-rule="evenodd" clip-rule="evenodd" d="M200.295 101.122C199.113 102.674 199.656 106.446 199.745 108.312C199.832 110.12 199.481 113.426 201.842 113.707C201.092 113.608 202.411 113.752 202.625 113.764C203.105 113.789 203.586 113.798 204.066 113.803C205.175 113.815 206.285 113.8 207.393 113.778C209.905 113.728 212.423 113.655 214.931 113.516C215.986 113.458 221.706 113.506 221.932 112.411C222.221 111.012 216.737 111.804 215.756 111.848C213.365 111.958 210.97 111.981 208.577 112.012C207.391 112.028 206.203 112.04 205.017 112.017C204.528 112.007 202.588 112.208 202.29 111.881C202.037 111.603 202.235 109.047 202.229 108.656C202.212 107.381 202.213 106.103 202.259 104.829C202.289 103.971 202.753 102.339 202.375 101.533C202.007 100.749 200.936 100.482 200.295 101.122Z" fill="#89C5CC"/>
<path opacity="0.5" fill-rule="evenodd" clip-rule="evenodd" d="M219.607 101.195C219.675 104.034 219.697 106.931 220.368 109.708C220.591 110.633 220.904 112.538 221.832 113.017C222.807 113.519 223.649 112.802 223.712 111.837C223.793 110.623 223.142 109.029 223.009 107.784C222.853 106.33 222.763 104.876 222.709 103.415C222.669 102.317 223.003 100.671 221.956 99.9625C221.015 99.3263 219.576 99.9669 219.607 101.195Z" fill="#89C5CC"/>
<path opacity="0.5" fill-rule="evenodd" clip-rule="evenodd" d="M227.07 100.501C225.904 101.662 226.425 105.34 226.571 106.832C226.678 107.925 227.875 113.303 229.668 110.499C230.461 109.258 229.454 105.978 229.461 104.532C229.465 103.611 229.791 102.446 229.634 101.561C229.426 100.392 228.128 99.4444 227.07 100.501Z" fill="#89C5CC"/>
<path opacity="0.5" fill-rule="evenodd" clip-rule="evenodd" d="M245.681 98.8759C248.061 98.8573 252.132 98.6546 253.881 100.606C254.931 101.777 255.3 103.708 255.71 105.17C256.025 106.292 256.879 108.317 256.272 109.477C255.997 110.002 255.555 110.449 254.884 110.263C254.727 110.219 254.603 110.164 254.507 110.097C254.765 110.375 254.88 110.772 254.713 111.16C254.312 112.091 252.836 111.89 252.034 111.957C249.36 112.179 246.672 112.328 243.988 112.352C241.394 112.374 238.8 112.308 236.207 112.333C234.046 112.355 231.795 112.792 229.655 112.705C228.761 112.668 227.807 112.375 228.033 111.221C228.234 110.196 229.265 110.188 230.106 110.103C232.638 109.845 235.172 109.754 237.717 109.763C243.064 109.781 248.406 109.754 253.753 109.726C253.973 109.744 254.181 109.828 254.352 109.957C254.07 109.618 254.205 109.115 254.153 108.623C254.012 107.301 253.922 106.001 253.671 104.679C253.47 103.622 253.319 101.825 252.339 101.16C251.269 100.434 248.893 100.674 247.616 100.641C244.179 100.552 240.723 100.796 237.302 101.107C235.742 101.249 234.162 101.357 232.62 101.637C231.761 101.793 229.241 103.054 228.555 102.278C226.903 100.41 234.162 99.6436 235.147 99.5419C238.651 99.1806 242.159 98.9095 245.681 98.8759Z" fill="#89C5CC"/>
<path opacity="0.5" fill-rule="evenodd" clip-rule="evenodd" d="M272.421 95.2895C272.573 95.4853 272.573 95.4853 272.421 95.2895V95.2895ZM248.712 83.7188C246.584 84.9691 250.522 88.6379 251.525 89.2054C253.783 90.4822 256.885 90.6747 259.406 91.0338C262.596 91.4885 266.069 91.6558 269.134 92.701C270.441 93.1465 271.271 93.8413 272.127 94.9094C272.56 95.4505 273.604 97.783 274.554 97.2308C276.468 96.1188 271.311 91.4523 270.175 90.9507C267.592 89.81 264.539 89.4906 261.777 89.0478C259.21 88.6357 256.586 88.3295 254.082 87.6033C252.705 87.2039 251.726 86.5599 250.932 85.3272C250.437 84.5589 250.032 82.9469 248.712 83.7188Z" fill="#C1DEE2"/>
<path opacity="0.5" fill-rule="evenodd" clip-rule="evenodd" d="M281.332 98.0495C282.478 98.0256 284.013 97.9222 284.929 98.7678C285.972 99.7306 286.18 102.119 286.493 103.406C286.833 104.804 287.238 106.226 287.38 107.66C287.414 107.996 287.503 108.573 287.463 109.092C287.94 109.156 288.225 109.619 288.177 110.124C288.087 111.061 286.788 111.189 286.028 111.337C283.5 111.831 280.798 111.719 278.235 111.791C272.873 111.942 267.139 112.808 261.798 112.292C260.88 112.204 259.893 111.879 260.13 110.716L260.128 110.729C259.491 109.51 259.199 107.167 259.142 106.704C258.897 104.71 258.879 102.74 258.912 100.734C258.932 99.6325 260.193 99.1073 261.01 99.7256C262.102 99.2679 263.951 99.1992 264.945 99.0989C266.578 98.934 268.224 98.8727 269.862 98.7748C273.684 98.5465 277.502 98.1344 281.332 98.0495ZM284.136 100.764C283.56 99.4181 283.058 99.7294 281.557 99.8314C280.013 99.9362 278.471 100.083 276.928 100.21C273.537 100.489 270.144 100.665 266.751 100.902C264.94 101.028 263.209 101.556 261.436 101.74L261.586 101.722C261.56 102.336 261.473 102.957 261.483 103.405C261.504 104.35 261.576 105.289 261.657 106.229L261.757 107.356C261.804 107.892 262.025 108.816 262.058 109.626C262.27 109.624 262.48 109.628 262.675 109.625C265.372 109.578 268.067 109.496 270.762 109.393C273.51 109.287 276.259 109.169 279.009 109.138C281.196 109.113 283.448 109.302 285.65 109.217C285.175 107.979 285.247 106.028 284.995 104.745C284.744 103.471 284.649 101.96 284.136 100.764Z" fill="#89C5CC"/>
</g>
<path fill-rule="evenodd" clip-rule="evenodd" d="M218.146 36.6723C214.764 43.0548 215.166 59.2448 219.536 60.3856C221.279 60.8405 224.991 59.7262 228.77 57.4198L226.398 74.4119H240.402L235.582 51.6553C238.27 48.4592 240.09 44.5425 239.786 40.1537C238.91 27.5077 221.527 30.2897 218.146 36.6723Z" fill="#915B3C"/>
<path fill-rule="evenodd" clip-rule="evenodd" d="M238.749 36.915C235.556 23.629 217.489 31.8777 214.013 29.636C213.253 34.4598 215.704 38.3494 224.321 37.5979C226.222 38.6737 227.575 40.6912 229.203 43.3377C229.599 43.1798 230.031 43.0931 230.483 43.0931C232.417 43.0931 233.984 44.6805 233.984 46.6386C233.984 47.6324 233.58 48.5307 232.93 49.1745C233.739 50.3324 234.647 51.5423 235.688 52.7908C239.566 50.4343 242.452 43.5708 238.761 36.9402L238.749 36.915Z" fill="#191847"/>
<path fill-rule="evenodd" clip-rule="evenodd" d="M245.071 123.458L223.697 198.048L213.643 254.051H203.553L213.625 123.458H245.071Z" fill="#915B3C"/>
<path fill-rule="evenodd" clip-rule="evenodd" d="M245.071 123.458L223.697 198.048L213.643 254.051H203.553L213.625 123.458H245.071Z" fill="black" fill-opacity="0.1"/>
<path fill-rule="evenodd" clip-rule="evenodd" d="M254.676 123.458C253.185 162.207 253.773 183.342 254.107 186.862C254.441 190.383 256.336 213.961 269.249 255.233H258.754C241.652 215.639 235.683 192.061 233.721 186.862C231.76 181.663 225.967 160.528 217.51 123.458H254.676Z" fill="#915B3C"/>
<path fill-rule="evenodd" clip-rule="evenodd" d="M245.529 123.458C239.97 149.124 230.354 190.095 216.682 246.369H201.923C200.833 188.609 205.47 150.593 213.501 123.458H245.529Z" fill="#69A1AC"/>
<path fill-rule="evenodd" clip-rule="evenodd" d="M254.751 123.458C253.29 162.207 257.076 200.382 268.801 246.972H253.055C235.922 207.97 223.643 169.983 215.251 123.458H254.751Z" fill="#89C5CC"/>
<path fill-rule="evenodd" clip-rule="evenodd" d="M270.745 262.914L270.166 253.46C266.775 254.464 262.529 254.07 257.426 252.278C251.939 256.214 245.032 258.901 236.705 260.341C236.07 260.45 235.642 261.061 235.751 261.704C235.758 261.746 235.767 261.787 235.778 261.828L236.579 264.687H257.426H269.586L270.745 262.914Z" fill="#191847"/>
<path fill-rule="evenodd" clip-rule="evenodd" d="M215.896 262.914L215.316 253.46C211.926 254.464 207.679 254.07 202.577 252.278C197.09 256.214 190.183 258.901 181.856 260.341C181.22 260.45 180.793 261.061 180.902 261.704C180.909 261.746 180.918 261.787 180.929 261.828L181.73 264.687H202.577H214.737L215.896 262.914Z" fill="#191847"/>
<path fill-rule="evenodd" clip-rule="evenodd" d="M267.064 116.38L254.87 116.428C262.399 141.042 266.464 154.102 267.064 155.608C268.414 158.997 265.557 164.158 264.335 166.931C268.314 168.734 267.89 162.056 272.91 164.421C277.492 166.58 280.978 170.492 286.272 167.184C286.923 166.777 287.636 165.245 285.913 164.049C281.619 161.068 275.433 155.85 274.597 154.132C273.457 151.79 270.946 139.206 267.064 116.38ZM195.601 115.902L176.988 129.743C171.94 131.123 167.722 132.839 164.335 134.892C163.535 135.631 162.568 137.126 165.886 136.867C169.205 136.609 172.706 136.488 173.164 137.634C173.622 138.78 171.614 140.151 172.539 141.698C173.156 142.728 176.071 140.143 181.284 133.942L199.715 126.202L195.601 115.902Z" fill="#915B3C"/>
<path fill-rule="evenodd" clip-rule="evenodd" d="M232.411 64.5646L227.366 63.6882C208.645 80.0658 200.956 111.529 178.009 128.196L183.532 135.13C223.341 130.138 233.208 91.7604 232.411 64.5646Z" fill="#E87613"/>
<path fill-rule="evenodd" clip-rule="evenodd" d="M254.407 128.776C234.176 128.776 219.294 128.776 209.762 128.776C207.722 128.776 208.107 125.793 208.402 124.287C211.805 106.914 225.091 88.1863 225.091 63.4559L237.969 61.4109C248.62 78.7593 252.303 100.119 254.407 128.776Z" fill="#DDE3E9"/>
<path fill-rule="evenodd" clip-rule="evenodd" d="M238.937 61.4125C238.503 61.4125 238.104 61.4401 237.742 61.4952L233.708 61.7285C222.142 101.427 218.952 127.913 224.139 141.187L259.278 141.188C261.359 146.104 263.351 150.24 265.254 153.596H274.828C275.73 124.09 268.802 99.0459 254.047 78.465C255.917 77.921 257.399 76.6511 258.491 74.6557C263.197 66.0548 261.497 61.3194 256.467 59.7628C251.437 58.2063 246.952 61.4125 238.937 61.4125Z" fill="#FF9B21"/>
<path fill-rule="evenodd" clip-rule="evenodd" d="M246.238 141.186L259.278 141.187C256.849 135.452 254.299 128.656 251.626 120.799C250.521 130.162 248.725 136.958 246.238 141.186Z" fill="black" fill-opacity="0.1"/>
<path fill-rule="evenodd" clip-rule="evenodd" d="M106.076 130.488C111.578 130.488 113.58 123.982 116.706 120.412C118.943 117.858 122.76 118.619 123.891 115.043C126.732 106.05 119.127 99.7209 109.205 99.7209C99.2837 99.7209 92.594 105.272 91.1495 113.617C89.7051 121.961 96.154 130.488 106.076 130.488Z" fill="#191847"/>
<path fill-rule="evenodd" clip-rule="evenodd" d="M121.071 112.624C123.861 117.76 123.53 130.787 119.924 131.705C118.486 132.071 115.422 131.175 112.304 129.319L114.261 142.992H102.706L106.683 124.68C104.465 122.108 102.963 118.957 103.214 115.425C103.937 105.25 118.281 107.488 121.071 112.624Z" fill="#D4A181"/>
<path fill-rule="evenodd" clip-rule="evenodd" d="M121.763 112.652C119.554 113.062 115.103 115.145 111.554 118.134C111.135 117.915 110.653 117.79 110.142 117.79C108.505 117.79 107.178 119.067 107.178 120.643C107.178 121.286 107.399 121.88 107.772 122.357C107.069 123.5 106.59 124.701 106.433 125.936C103.999 125.936 95.1135 116.839 103.965 108.28C112.816 99.7214 125.607 111.94 121.763 112.652Z" fill="#191847"/>
<path fill-rule="evenodd" clip-rule="evenodd" d="M81.8194 205.035H119.016L123.89 263.996H68.5195L81.8194 205.035Z" fill="#C5CFD6"/>
<path fill-rule="evenodd" clip-rule="evenodd" d="M81.8194 205.035H93.2596L100.107 263.996H68.5195L81.8194 205.035Z" fill="black" fill-opacity="0.1"/>
<path fill-rule="evenodd" clip-rule="evenodd" d="M181.263 259.012C171.77 247.565 165.347 239.078 161.994 233.552C156.252 224.09 151.553 215.67 150.07 212.454C146.533 204.785 158.211 201.194 160.854 204.771C164.854 210.185 173.397 227.222 186.483 255.882L181.263 259.012Z" fill="#D4A181"/>
<path fill-rule="evenodd" clip-rule="evenodd" d="M161.811 255.679L144.144 211.762C140.366 203.756 158.613 198.493 161.39 202.219C167.695 210.678 182.679 244.046 184.558 246.566L161.811 255.679Z" fill="#2F3676"/>
<path fill-rule="evenodd" clip-rule="evenodd" d="M114.758 246.872C118.2 241.915 130.717 225.236 137.535 218.335C139.494 216.352 141.406 214.449 143.214 212.675C148.589 207.403 159.291 216.264 153.926 221.066C140.567 233.025 121.074 249.169 119.446 250.608C117.163 252.626 112.595 249.988 114.758 246.872Z" fill="#D4A181"/>
<path fill-rule="evenodd" clip-rule="evenodd" d="M115.563 244.632C114.377 245.595 113.606 246.383 113.249 246.993C112.815 247.736 112.307 248.891 111.724 250.459C112.596 250.956 120.436 255.426 135.242 263.867C137.02 262.22 137.297 260.942 136.073 260.032C134.849 259.122 133.839 258.355 133.044 257.73L124.927 246.685C124.77 246.472 124.469 246.425 124.254 246.579C124.25 246.582 124.247 246.585 124.243 246.587L122.556 247.87C121.009 247.737 119.854 247.453 119.092 247.019C118.473 246.666 117.762 245.931 116.96 244.815L116.96 244.815C116.652 244.387 116.051 244.286 115.618 244.59C115.599 244.603 115.581 244.617 115.563 244.632Z" fill="#E4E4E4"/>
<path fill-rule="evenodd" clip-rule="evenodd" d="M177.18 257.299C176.641 258.719 176.372 259.782 176.372 260.487C176.372 261.344 176.517 262.595 176.806 264.24C177.813 264.24 186.865 264.24 203.963 264.24C204.668 261.936 204.261 260.692 202.741 260.509C201.22 260.325 199.957 260.159 198.951 260.011L186.329 254.454C186.086 254.347 185.802 254.455 185.693 254.695C185.692 254.699 185.69 254.703 185.688 254.707L184.877 256.651C183.469 257.299 182.325 257.624 181.445 257.624C180.73 257.624 179.743 257.338 178.483 256.768L178.483 256.768C178 256.549 177.428 256.759 177.206 257.236C177.197 257.257 177.188 257.278 177.18 257.299Z" fill="#E4E4E4"/>
<path fill-rule="evenodd" clip-rule="evenodd" d="M137.787 213.955C123.103 211.593 113.267 209.977 108.28 209.109C94.0655 206.634 89.9203 199.079 92.3712 182.597H118.562C122.028 183.586 136.51 189.699 162.008 200.937C166.595 203.186 165.741 209.817 164.903 212.002C164.868 212.091 157.135 225.178 141.701 251.263L120.276 237.784L137.827 215.543C138.29 214.621 138.277 214.092 137.787 213.955Z" fill="#5C63AB"/>
<path fill-rule="evenodd" clip-rule="evenodd" d="M73.6556 169.397L82.1835 170.62C73.0295 190.234 68.122 200.607 67.4608 201.739C65.9733 204.286 67.7227 208.722 68.4067 211.071C64.9504 212.056 66.0542 206.783 61.6839 208.098C57.695 209.299 54.4032 212.02 50.4525 208.784C49.9668 208.386 49.5576 207.085 51.1014 206.327C54.9477 204.438 60.5949 200.982 61.4727 199.709C62.6698 197.972 66.7307 187.868 73.6556 169.397ZM139.471 174.663L154.005 186.831C158.082 188.226 161.456 189.843 164.127 191.684C164.744 192.322 165.455 193.577 162.738 193.181C160.022 192.785 157.146 192.489 156.704 193.383C156.262 194.277 157.837 195.491 156.988 196.68C156.421 197.472 154.169 195.232 150.23 189.958L135.498 182.697L139.471 174.663Z" fill="#D4A181"/>
<path fill-rule="evenodd" clip-rule="evenodd" d="M109.299 135.063L114.584 133.336C121.746 151.016 132.432 168.121 150.289 182.567L145.869 190.093C130.174 180.967 115.316 173.878 109.29 160.179C107.268 155.581 109.132 140.562 109.299 135.063Z" fill="#C5CFD6"/>
<path fill-rule="evenodd" clip-rule="evenodd" d="M91.1494 184.837C106.287 186.422 118.201 186.422 126.893 184.837C127.97 184.641 128.14 182.86 127.64 181.652C119.863 162.833 114.53 146.413 114.53 133.343C113.103 134.053 110.606 134.16 107.038 133.662C97.4502 147.132 93.0429 162.587 91.1494 184.837Z" fill="#323337"/>
<path fill-rule="evenodd" clip-rule="evenodd" d="M104.669 132.285L104.655 132.531L108.65 132.531C109.571 137.881 112.457 209.656 121.305 234.317L121.574 235.05H72.5568C73.6194 213.121 82.0022 186.779 90.4941 164.736C82.9852 171.522 76.4406 183.02 70.8603 199.23L61.6787 196.902C68.5054 167.852 82.5408 146.5 103.785 132.846L103.924 132.531L104.279 132.531L104.669 132.285Z" fill="#DDE3E9"/>
</g>
<defs>
<clipPath id="clip0">
<rect width="304" height="263" fill="white"/>
</clipPath>
</defs>
</svg>
